<?xml version="1.0" encoding="utf-8"?>
<svg width="1274.6128px" height="223.75922px" viewBox="0 0 1274.6128 223.75922" version="1.1" xmlns:xlink="http://www.w3.org/1999/xlink" xmlns="http://www.w3.org/2000/svg">
  <defs>
    <linearGradient gradientUnits="userSpaceOnUse" x1="99.99999" y1="3.910584" x2="99.99999" y2="215.80495" id="gradient_1">
      <stop offset="0%" stop-color="#9506F7" />
      <stop offset="27.908733%" stop-color="#3536B8" />
      <stop offset="48.074753%" stop-color="#3D0076" />
      <stop offset="74.50833%" stop-color="#FF760D" />
      <stop offset="100%" stop-color="#FDB402" />
    </linearGradient>
    <linearGradient gradientUnits="userSpaceOnUse" x1="42.105526" y1="0" x2="0" y2="107.00004" id="gradient_2">
      <stop offset="0%" stop-color="#270B95" />
      <stop offset="100%" stop-color="#208BE1" />
    </linearGradient>
    <linearGradient gradientUnits="userSpaceOnUse" x1="42.105526" y1="0" x2="0" y2="107" id="gradient_3">
      <stop offset="0%" stop-color="#FF5900" />
      <stop offset="100%" stop-color="#FEDA3B" />
    </linearGradient>
    <filter filterUnits="userSpaceOnUse" color-interpolation-filters="sRGB" id="filter_1">
      <feFlood flood-opacity="0" result="BackgroundImageFix" />
      <feBlend mode="normal" in="SourceGraphic" in2="BackgroundImageFix" result="shape" />
      <feColorMatrix in="SourceAlpha" type="matrix" values="0 0 0 0 0 0 0 0 0 0 0 0 0 0 0 0 0 0 127 0" result="hardAlpha" />
      <feOffset dx="0" dy="2" />
      <feGaussianBlur stdDeviation="25" />
      <feComposite in2="hardAlpha" operator="arithmetic" k2="-1" k3="1" />
      <feColorMatrix type="matrix" values="0 0 0 0 0 0 0 0 0 0 0 0 0 0 0 0 0 0 0.2 0" />
      <feBlend mode="normal" in2="shape" result="effect0_innerShadow" />
    </filter>
    <path d="M0 0L1274.61 0L1274.61 223.759L0 223.759L0 0Z" id="path_1" />
    <path d="M109.067 15.4919L189.068 56.186Q189.375 56.3419 189.676 56.5083Q189.977 56.6746 190.272 56.8512Q190.567 57.0278 190.855 57.2144Q191.144 57.401 191.426 57.5974Q191.709 57.7939 191.984 57.9999Q192.259 58.2059 192.527 58.4213Q192.795 58.6366 193.056 58.8611Q193.316 59.0855 193.569 59.3188Q193.821 59.5521 194.066 59.7939Q194.31 60.0357 194.546 60.2858Q194.782 60.5359 195.01 60.7939Q195.237 61.0519 195.455 61.3176Q195.673 61.5833 195.882 61.8564Q196.091 62.1294 196.291 62.4095Q196.49 62.6896 196.68 62.9763Q196.87 63.2631 197.049 63.5562Q197.229 63.8493 197.399 64.1484Q197.568 64.4475 197.727 64.7523Q197.887 65.0571 198.035 65.3671Q198.184 65.6772 198.322 65.9922Q198.46 66.3072 198.587 66.6267Q198.714 66.9463 198.83 67.27Q198.945 67.5937 199.05 67.9212Q199.155 68.2487 199.248 68.5796Q199.342 68.9105 199.424 69.2445Q199.506 69.5784 199.576 69.9149Q199.646 70.2515 199.705 70.5903Q199.764 70.9291 199.811 71.2696Q199.858 71.6102 199.894 71.9522Q199.929 72.2943 199.953 72.6373Q199.976 72.9803 199.988 73.3239Q200 73.6676 200 74.0114L200 149.462Q200 149.806 199.988 150.149Q199.976 150.493 199.953 150.836Q199.929 151.179 199.894 151.521Q199.858 151.863 199.811 152.204Q199.764 152.544 199.705 152.883Q199.646 153.222 199.576 153.558Q199.506 153.895 199.424 154.229Q199.342 154.563 199.248 154.894Q199.155 155.225 199.05 155.552Q198.945 155.88 198.83 156.203Q198.714 156.527 198.587 156.847Q198.46 157.166 198.322 157.481Q198.184 157.796 198.035 158.106Q197.887 158.416 197.727 158.721Q197.568 159.026 197.399 159.325Q197.229 159.624 197.049 159.917Q196.87 160.21 196.68 160.497Q196.49 160.784 196.291 161.064Q196.091 161.344 195.882 161.617Q195.673 161.89 195.455 162.156Q195.237 162.421 195.01 162.679Q194.782 162.937 194.546 163.188Q194.31 163.438 194.066 163.679Q193.821 163.921 193.569 164.155Q193.316 164.388 193.056 164.612Q192.795 164.837 192.527 165.052Q192.259 165.267 191.984 165.473Q191.709 165.679 191.426 165.876Q191.144 166.072 190.855 166.259Q190.567 166.446 190.272 166.622Q189.977 166.799 189.676 166.965Q189.375 167.131 189.068 167.287L109.067 207.981Q108.543 208.248 108.004 208.484Q107.465 208.719 106.912 208.922Q106.36 209.126 105.797 209.296Q105.234 209.467 104.662 209.604Q104.09 209.741 103.511 209.844Q102.932 209.948 102.347 210.017Q101.763 210.086 101.176 210.12Q100.588 210.155 100 210.155Q99.4117 210.155 98.8243 210.12Q98.237 210.086 97.6527 210.017Q97.0685 209.948 96.4893 209.844Q95.9101 209.741 95.3379 209.604Q94.7658 209.467 94.2027 209.296Q93.6396 209.126 93.0876 208.922Q92.5355 208.719 91.9963 208.484Q91.4572 208.248 90.9327 207.981L10.9318 167.287Q10.6253 167.131 10.3244 166.965Q10.0234 166.799 9.72839 166.622Q9.43336 166.446 9.14457 166.259Q8.85577 166.072 8.57357 165.876Q8.29137 165.679 8.01608 165.473Q7.7408 165.267 7.47276 165.052Q7.20472 164.837 6.94424 164.612Q6.68376 164.388 6.43115 164.155Q6.17854 163.921 5.9341 163.679Q5.68966 163.438 5.45368 163.188Q5.21769 162.937 4.99044 162.679Q4.7632 162.421 4.54495 162.156Q4.32671 161.89 4.11773 161.617Q3.90875 161.344 3.70928 161.064Q3.50981 160.784 3.32008 160.497Q3.13036 160.21 2.9506 159.917Q2.77084 159.624 2.60127 159.325Q2.4317 159.026 2.27251 158.721Q2.11332 158.416 1.96469 158.106Q1.81607 157.796 1.6782 157.481Q1.54033 157.166 1.41336 156.847Q1.2864 156.527 1.17049 156.203Q1.05459 155.88 0.949878 155.552Q0.845169 155.225 0.75178 154.894Q0.658392 154.563 0.576434 154.229Q0.494476 153.895 0.424046 153.558Q0.353615 153.222 0.294796 152.883Q0.235976 152.544 0.188837 152.204Q0.141697 151.863 0.106294 151.521Q0.0708905 151.179 0.047265 150.836Q0.0236395 150.493 0.0118197 150.149Q0 149.806 0 149.462L0 74.0114Q0 73.6676 0.0118197 73.324Q0.0236395 72.9803 0.0472649 72.6373Q0.0708904 72.2943 0.106294 71.9522Q0.141697 71.6102 0.188836 71.2696Q0.235976 70.9291 0.294795 70.5903Q0.353615 70.2515 0.424045 69.9149Q0.494475 69.5784 0.576433 69.2445Q0.658391 68.9105 0.751779 68.5796Q0.845168 68.2487 0.949876 67.9212Q1.05459 67.5937 1.17049 67.27Q1.2864 66.9463 1.41336 66.6267Q1.54032 66.3072 1.6782 65.9922Q1.81607 65.6772 1.96469 65.3671Q2.11331 65.0571 2.2725 64.7523Q2.43169 64.4475 2.60127 64.1484Q2.77084 63.8493 2.9506 63.5562Q3.13035 63.2631 3.32008 62.9763Q3.5098 62.6896 3.70927 62.4095Q3.90875 62.1294 4.11773 61.8564Q4.32671 61.5833 4.54495 61.3176Q4.76319 61.0519 4.99044 60.7939Q5.21769 60.5359 5.45367 60.2858Q5.68965 60.0357 5.93409 59.7939Q6.17853 59.5521 6.43114 59.3188Q6.68375 59.0855 6.94423 58.8611Q7.20471 58.6366 7.47275 58.4213Q7.74079 58.2059 8.01607 57.9999Q8.29136 57.7939 8.57356 57.5974Q8.85576 57.401 9.14456 57.2144Q9.43334 57.0278 9.72838 56.8512Q10.0234 56.6746 10.3243 56.5083Q10.6253 56.3419 10.9317 56.186L90.9327 15.4919Q91.4571 15.2251 91.9963 14.9897Q92.5355 14.7542 93.0876 14.5508Q93.6396 14.3475 94.2027 14.1769Q94.7658 14.0064 95.3379 13.8692Q95.91 13.7321 96.4893 13.6288Q97.0685 13.5255 97.6527 13.4565Q98.237 13.3874 98.8243 13.3528Q99.4117 13.3183 100 13.3183Q100.588 13.3183 101.176 13.3528Q101.763 13.3874 102.347 13.4565Q102.932 13.5255 103.511 13.6288Q104.09 13.7321 104.662 13.8692Q105.234 14.0064 105.797 14.1769Q106.36 14.3475 106.912 14.5508Q107.465 14.7542 108.004 14.9897Q108.543 15.2251 109.067 15.4919L109.067 15.4919Z" id="path_2" />
    <clipPath id="clip_1">
      <use xlink:href="#path_1" />
    </clipPath>
  </defs>
  <g id="subsolute-dark" clip-path="url(#clip_1)">
    <path d="M0 0L1274.61 0L1274.61 223.759L0 223.759L0 0Z" id="subsolute-dark" fill="none" fill-rule="evenodd" stroke="none" />
    <path d="M261.269 185.915C256.425 182.243 255.253 178.532 257.753 174.782L266.777 161.188C269.745 156.735 274.081 156.501 279.784 160.485C284.159 163.532 289.882 166.677 296.952 169.919C304.023 173.161 311.464 174.782 319.277 174.782C324.745 174.782 330.019 174.157 335.097 172.907C340.175 171.657 344.042 169.235 346.698 165.641C349.355 162.048 350.683 157.79 350.683 152.868C350.683 149.352 350.097 146.266 348.925 143.61C347.753 140.954 345.839 138.766 343.183 137.048C340.527 135.329 337.792 133.884 334.98 132.712C330.058 130.68 323.866 128.669 316.406 126.677C308.945 124.684 301.581 122.282 294.316 119.469C287.831 116.969 281.894 113.532 276.503 109.157C271.113 104.782 266.933 99.8601 263.964 94.3914C260.995 88.9226 259.511 81.6179 259.511 72.4773C259.511 61.6179 263.027 52.321 270.058 44.5867C277.089 36.8523 285.175 31.8914 294.316 29.7039C303.456 27.5164 312.675 26.4226 321.972 26.4226C331.191 26.4226 340.702 27.8289 350.507 30.6414C360.312 33.4539 367.714 36.9695 372.714 41.1882C377.636 45.3289 378.847 49.0789 376.347 52.4382L366.855 65.2117C363.652 69.5867 359.355 69.9382 353.964 66.2664C350.527 63.9226 345.82 61.3054 339.843 58.4148C333.866 55.5242 327.636 54.0789 321.152 54.0789C316.542 54.0789 312.304 54.4695 308.437 55.2507C304.57 56.032 301.152 57.907 298.183 60.8757C295.214 63.8445 293.73 67.5164 293.73 71.8914C293.73 76.1101 294.823 79.5281 297.011 82.1453C299.198 84.7625 301.62 86.7156 304.277 88.0046C306.933 89.2937 309.628 90.3679 312.363 91.2273C320.8 93.9617 328.339 96.364 334.98 98.4343C341.62 100.505 347.753 102.79 353.378 105.29C361.191 108.805 367.167 112.321 371.308 115.837C375.448 119.352 378.866 124.157 381.562 130.251C384.257 136.344 385.605 143.61 385.605 152.048C385.605 164.548 381.62 174.88 373.652 183.044C365.683 191.208 356.835 196.481 347.109 198.864C337.382 201.247 327.909 202.438 318.691 202.438C305.097 202.438 294.042 201.13 285.527 198.512C277.011 195.895 268.925 191.696 261.269 185.915L261.269 185.915Z" id="S" fill="#FFFFFF" stroke="none" />
    <path d="M399.511 147.36L399.511 82.4382C399.511 77.7507 401.855 75.407 406.542 75.407L425.292 75.407C429.98 75.407 432.324 77.7507 432.324 82.4382L432.324 138.923C432.324 155.954 433.496 166.696 435.839 171.149C438.183 175.602 443.105 177.829 450.605 177.829C458.574 177.829 464.628 174.645 468.769 168.278C472.91 161.911 474.98 148.688 474.98 128.61L474.98 82.4382C474.98 77.7507 477.324 75.407 482.011 75.407L500.761 75.407C505.449 75.407 507.792 77.7507 507.792 82.4382L507.792 191.423C507.792 196.11 505.449 198.454 500.761 198.454L482.246 198.454C477.558 198.454 475.214 196.11 475.214 191.423L475.214 184.626L474.746 184.626C471.152 190.798 466.582 195.036 461.035 197.341C455.488 199.645 448.925 200.798 441.347 200.798C429.394 200.798 419.433 196.969 411.464 189.313C403.496 181.657 399.511 167.673 399.511 147.36L399.511 147.36Z" id="u" fill="#FFFFFF" stroke="none" />
    <g id="Group">
      <g id="Polygon-Union-2">
        <use stroke="none" fill="#000000" xlink:href="#path_2" fill-rule="evenodd" filter="url(#filter_1)" />
      </g>
      <path d="M200 158.881L200 66.3996C200 62.8342 199.11 59.5068 197.331 56.4173C195.551 53.3278 193.119 50.8886 190.035 49.0998L110.034 2.69924C106.931 0.899747 103.587 0 100 0C96.4133 0 93.0687 0.899747 89.9661 2.69924L9.96514 49.0998C6.88097 50.8887 4.44907 53.3278 2.66944 56.4173C0.889814 59.5068 5.32353e-15 62.8342 5.32353e-15 66.3996L5.32353e-15 157.36C-7.94728e-08 160.925 0.889814 164.252 2.66944 167.342C4.44907 170.431 6.88097 172.871 9.96514 174.659L89.9661 221.06C93.0687 222.859 96.4133 223.759 100 223.759C103.587 223.759 106.931 222.859 110.034 221.06L191.351 173.896C196.128 171.126 200 164.403 200 158.881L200 158.881ZM100 16.8796L20 63.2796L20 160.48L100 206.88L180 160.48L180 63.2796L100 16.8796L100 16.8796Z" id="Gradinet-frame" fill="url(#gradient_1)" fill-rule="evenodd" stroke="none" />
      <path d="M0 152.85L50 45.85L0 74.85L0 152.85Z" id="left-wing" fill="url(#gradient_2)" fill-rule="evenodd" stroke="none" />
      <path d="M150 178L200 71L200 149L150 178L150 178Z" id="right-wing" fill="url(#gradient_3)" fill-rule="evenodd" stroke="none" />
      <path d="M50 112C50 84.3858 72.3858 62 100 62C127.614 62 150 84.3858 150 112C150 139.614 127.614 162 100 162C72.3858 162 50 139.614 50 112Z" id="Center-circle" fill="#FFFFFF" fill-rule="evenodd" stroke="none" />
    </g>
    <path d="M526.667 191.423C526.667 196.11 529.011 198.454 533.699 198.454L552.214 198.454C556.121 198.454 558.23 196.11 558.542 191.423L559.011 184.626L559.48 184.626C563.542 191.344 568.074 195.719 573.074 197.751C578.074 199.782 584.089 200.798 591.121 200.798C609.48 200.798 622.39 194.45 629.851 181.755C637.312 169.059 641.042 154.118 641.042 136.93C641.042 119.743 637.312 104.802 629.851 92.1062C622.39 79.4109 609.48 73.0632 591.121 73.0632C584.089 73.0632 578.074 74.0789 573.074 76.1101C568.074 78.1414 563.542 82.5164 559.48 89.2351L559.011 89.2351C559.324 86.1101 559.48 82.9851 559.48 79.8601L559.48 32.5164C559.48 27.8289 557.136 25.4851 552.449 25.4851L533.699 25.4851C529.011 25.4851 526.667 27.8289 526.667 32.5164L526.667 191.423L526.667 191.423ZM565.75 167.927C561.57 161.325 559.48 152.751 559.48 142.204L559.48 131.657C559.48 121.11 561.57 112.536 565.75 105.934C569.929 99.3328 574.949 96.032 580.808 96.032C591.355 96.032 598.25 99.7234 601.492 107.106C604.734 114.489 606.355 124.43 606.355 136.93C606.355 149.43 604.734 159.372 601.492 166.755C598.25 174.137 591.355 177.829 580.808 177.829C574.949 177.829 569.929 174.528 565.75 167.927L565.75 167.927Z" id="Vector" fill="#FFFFFF" fill-rule="evenodd" stroke="none" />
    <path d="M653.894 190.251C650.066 187.516 649.011 184.587 650.73 181.462L656.707 170.563C658.816 166.657 662.097 166.188 666.55 169.157C671.003 172.126 676.257 174.313 682.312 175.719C688.367 177.126 693.894 177.829 698.894 177.829C702.41 177.829 705.691 177.477 708.738 176.774C711.785 176.071 714.363 174.704 716.472 172.673C718.582 170.641 719.636 167.673 719.636 163.766C719.636 161.423 719.011 159.43 717.761 157.79C716.511 156.149 714.91 154.899 712.957 154.04C711.003 153.18 708.933 152.477 706.746 151.93C703.855 151.227 699.695 150.055 694.265 148.415C688.836 146.774 683.621 144.86 678.621 142.673C674.48 140.876 670.437 138.356 666.492 135.114C662.546 131.872 659.656 128.259 657.82 124.274C655.984 120.29 655.066 115.368 655.066 109.509C655.066 101.618 657.351 94.7039 661.921 88.7664C666.492 82.8289 672.41 78.7273 679.675 76.4617C686.941 74.196 696.003 73.0632 706.863 73.0632C714.207 73.0632 721.355 74.1179 728.308 76.2273C735.261 78.3367 740.222 80.3289 743.191 82.2039C747.878 85.1726 749.05 88.3367 746.707 91.696L739.558 102.126C737.371 105.251 733.855 105.485 729.011 102.829C725.339 100.798 721.726 99.157 718.171 97.907C714.617 96.657 710.652 96.032 706.277 96.032C703.308 96.032 700.457 96.3445 697.722 96.9695C694.988 97.5945 692.664 98.7664 690.75 100.485C688.836 102.204 687.878 104.469 687.878 107.282C687.878 110.251 688.757 112.575 690.515 114.255C692.273 115.934 694.304 117.165 696.609 117.946C698.914 118.727 701.121 119.469 703.23 120.173C707.605 121.579 712.019 122.927 716.472 124.216C720.925 125.505 725.457 127.048 730.066 128.844C734.05 130.407 737.918 132.634 741.667 135.524C745.417 138.415 748.152 142.087 749.871 146.54C751.589 150.993 752.449 156.071 752.449 161.774C752.449 169.352 750.183 176.384 745.652 182.868C741.121 189.352 735.144 193.962 727.722 196.696C720.3 199.43 711.667 200.798 701.824 200.798C690.808 200.798 681.433 200.016 673.699 198.454C665.964 196.891 659.363 194.157 653.894 190.251L653.894 190.251Z" id="s" fill="#FFFFFF" stroke="none" />
    <path d="M777.976 90.0554C767.703 101.384 762.566 117.009 762.566 136.93C762.566 156.852 767.703 172.477 777.976 183.805C788.25 195.134 803.542 200.798 823.855 200.798C844.167 200.798 859.46 195.134 869.734 183.805C880.007 172.477 885.144 156.852 885.144 136.93C885.144 117.009 880.007 101.384 869.734 90.0554C859.46 78.7273 844.167 73.0632 823.855 73.0632C803.542 73.0632 788.25 78.7273 777.976 90.0554L777.976 90.0554ZM804.109 168.512C799.539 162.302 797.253 151.774 797.253 136.93C797.253 122.087 799.539 111.559 804.109 105.348C808.679 99.1375 815.261 96.032 823.855 96.032C832.449 96.032 839.031 99.1375 843.601 105.348C848.171 111.559 850.457 122.087 850.457 136.93C850.457 151.774 848.171 162.302 843.601 168.512C839.031 174.723 832.449 177.829 823.855 177.829C815.261 177.829 808.679 174.723 804.109 168.512L804.109 168.512Z" id="Vector" fill="#FFFFFF" fill-rule="evenodd" stroke="none" />
    <path d="M907.488 198.454C902.8 198.454 900.457 196.11 900.457 191.423L900.457 53.0242C900.457 49.5085 901.277 46.3054 902.917 43.4148L911.941 27.5945C913.66 24.6257 915.691 23.1414 918.035 23.1414L926.238 23.1414C930.925 23.1414 933.269 25.4851 933.269 30.1726L933.269 191.423C933.269 196.11 930.925 198.454 926.238 198.454L907.488 198.454Z" id="l" fill="#FFFFFF" stroke="none" />
    <path d="M947.91 147.36L947.91 82.4382C947.91 77.7507 950.253 75.407 954.941 75.407L973.691 75.407C978.378 75.407 980.722 77.7507 980.722 82.4382L980.722 138.923C980.722 155.954 981.894 166.696 984.238 171.149C986.582 175.602 991.503 177.829 999.003 177.829C1006.97 177.829 1013.03 174.645 1017.17 168.278C1021.31 161.911 1023.38 148.688 1023.38 128.61L1023.38 82.4382C1023.38 77.7507 1025.72 75.407 1030.41 75.407L1049.16 75.407C1053.85 75.407 1056.19 77.7507 1056.19 82.4382L1056.19 191.423C1056.19 196.11 1053.85 198.454 1049.16 198.454L1030.64 198.454C1025.96 198.454 1023.61 196.11 1023.61 191.423L1023.61 184.626L1023.14 184.626C1019.55 190.798 1014.98 195.036 1009.43 197.341C1003.89 199.645 997.324 200.798 989.746 200.798C977.792 200.798 967.832 196.969 959.863 189.313C951.894 181.657 947.91 167.673 947.91 147.36L947.91 147.36Z" id="u" fill="#FFFFFF" stroke="none" />
    <path d="M1077.96 98.8445C1073.35 98.8445 1071.05 96.8914 1071.05 92.9851L1071.05 81.2664C1071.05 77.3601 1073.35 75.407 1077.96 75.407L1085.93 75.407L1085.93 71.3054C1085.93 67.7898 1086.75 64.5867 1088.39 61.696L1097.42 45.8757C1099.14 42.907 1101.17 41.4226 1103.51 41.4226L1111.71 41.4226C1116.4 41.4226 1118.75 43.7664 1118.75 48.4539L1118.75 75.407L1137.73 75.407C1142.34 75.407 1144.64 77.3601 1144.64 81.2664L1144.64 92.9851C1144.64 96.8914 1142.34 98.8445 1137.73 98.8445L1118.75 98.8445L1118.75 156.969C1118.75 164.938 1119.31 170.661 1120.44 174.137C1121.58 177.614 1124.53 179.352 1129.29 179.352C1131.71 179.352 1134.45 178.942 1137.5 178.122C1140.54 177.302 1142.93 176.501 1144.64 175.719C1147.38 174.469 1149.18 175.368 1150.03 178.415L1153.55 191.774C1154.25 194.43 1153.24 196.384 1150.5 197.634C1147.93 198.805 1144.39 199.88 1139.9 200.856C1135.41 201.833 1130.89 202.321 1126.36 202.321C1115.19 202.321 1105.66 200.016 1097.77 195.407C1089.88 190.798 1085.93 181.305 1085.93 166.93L1085.93 98.8445L1077.96 98.8445Z" id="t" fill="#FFFFFF" stroke="none" />
    <path d="M1170.84 90.1726C1160.96 101.579 1156.02 117.165 1156.02 136.93C1156.02 156.696 1160.78 172.282 1170.32 183.688C1179.85 195.094 1195.82 200.798 1218.25 200.798C1232.07 200.798 1242.19 199.391 1248.6 196.579C1255 193.766 1260.59 189.509 1265.35 183.805C1266.91 181.949 1267.58 180.215 1267.36 178.606C1267.11 176.829 1265.78 175.203 1263.36 173.727L1251.64 166.579C1247.74 164.235 1244.46 164.782 1241.8 168.219C1239.46 171.188 1236.57 173.532 1233.13 175.251C1229.69 176.969 1224.73 177.829 1218.25 177.829C1211.45 177.829 1205.47 176.149 1200.32 172.79C1195.16 169.43 1191.96 161.266 1190.71 148.298L1268.05 148.298C1272.43 148.298 1274.61 145.954 1274.61 141.266C1274.61 117.36 1269.53 100.016 1259.38 89.2351C1249.22 78.4539 1233.68 73.0632 1212.74 73.0632C1194.69 73.0632 1180.73 78.7664 1170.84 90.1726L1170.84 90.1726ZM1241.8 124.86L1190.82 124.86C1191.21 115.954 1193.56 108.942 1197.85 103.825C1202.15 98.7078 1207.97 96.1492 1215.32 96.1492C1224.53 96.1492 1231.25 98.825 1235.47 104.177C1239.69 109.528 1241.8 116.423 1241.8 124.86L1241.8 124.86Z" id="Vector" fill="#FFFFFF" fill-rule="evenodd" stroke="none" />
  </g>
</svg>