<?xml version="1.0" encoding="utf-8"?>
<svg width="5115.5923px" height="1909.0508px" viewBox="0 0 5115.5923 1909.0508" version="1.1" xmlns:xlink="http://www.w3.org/1999/xlink" xmlns="http://www.w3.org/2000/svg">
  <defs>
    <linearGradient gradientUnits="userSpaceOnUse" x1="-10.786621" y1="-0" x2="1002.2653" y2="0" id="gradient_1">
      <stop offset="0%" stop-color="#E1E5EF" />
      <stop offset="0.051751%" stop-color="#E1E5EF" />
      <stop offset="99.94819%" stop-color="#E1E5EF" />
      <stop offset="100%" stop-color="#E1E5EF" />
    </linearGradient>
    <filter id="filter_1">
      <feColorMatrix in="SourceGraphic" type="matrix" values="0 0 0 0 0.9490196 0 0 0 0 0.9529412 0 0 0 0 0.96862745 0 0 0 1 0" color-interpolation-filters="sRGB" />
    </filter>
    <filter id="filter_2">
      <feColorMatrix in="SourceGraphic" type="matrix" values="0 0 0 0 0.7921569 0 0 0 0 0.8235294 0 0 0 0 0.91764706 0 0 0 1 0" color-interpolation-filters="sRGB" />
    </filter>
    <filter id="filter_3">
      <feColorMatrix in="SourceGraphic" type="matrix" values="0 0 0 0 0.20392157 0 0 0 0 0.21568628 0 0 0 0 0.4 0 0 0 1 0" color-interpolation-filters="sRGB" />
    </filter>
    <filter id="filter_4">
      <feColorMatrix in="SourceGraphic" type="matrix" values="0 0 0 0 0.12156863 0 0 0 0 0.09803922 0 0 0 0 0.28627452 0 0 0 1 0" color-interpolation-filters="sRGB" />
    </filter>
    <path d="M0 0L5115.59 0L5115.59 1909.05L0 1909.05L0 0Z" id="path_1" />
    <path d="M1081.33 261.187L0 261.187L0 261.16C2.28003 201.96 35.5735 148.187 90.0535 124.853C91.8132 124.107 93.6001 123.387 95.4001 122.693L95.4001 122.693C146.36 103.213 202.76 105.253 253.667 85.8667C296.56 69.52 329.293 35.4133 371.36 17.5867C400.32 5.31995 430.453 0 460.693 0C517.6 0 574.84 18.8667 625.027 45.84C682.267 76.5867 728.013 125.92 787.64 152.587C850.973 180.92 918.8 157.067 982.866 177.64C1003.48 184.253 1021.91 194.867 1038.36 208.947C1044.97 214.627 1077.63 260.933 1081.31 261.187" id="path_2" />
    <path d="M752.72 468.864L35.6667 468.864C15.96 468.864 0 452.896 0 433.2L0 35.6641C0 15.9666 15.96 0 35.6667 0L752.72 0C772.413 0 788.386 15.9666 788.386 35.6641L788.386 433.2C788.386 452.896 772.413 468.864 752.72 468.864" id="path_3" />
    <path d="M109.331 69.7062C101.531 99.3903 71.1445 117.132 41.4644 109.33C11.7844 101.53 -5.96216 71.145 1.83789 41.461C9.63794 11.7784 40.0247 -5.96173 69.7046 1.8382C99.3977 9.6369 117.131 40.0236 109.331 69.7062" id="path_4" />
    <clipPath id="clip_1">
      <use xlink:href="#path_1" />
    </clipPath>
    <clipPath id="mask_1">
      <use xlink:href="#path_2" />
    </clipPath>
    <clipPath id="mask_2">
      <use xlink:href="#path_3" />
    </clipPath>
    <clipPath id="mask_3">
      <use xlink:href="#path_4" />
    </clipPath>
  </defs>
  <g id="working-together" clip-path="url(#clip_1)">
    <path d="M0 0L5115.59 0L5115.59 1909.05L0 1909.05L0 0Z" id="working-together" fill="none" fill-rule="evenodd" stroke="none" />
    <path d="M4338.08 27.0907C5504.63 134.091 5190.14 1625.2 4492.07 1731.59C3794.01 1837.99 965.267 2006.29 412.391 1837.09C-140.486 1667.9 -134.433 720.741 412.391 433.091C959.214 145.442 3171.53 -79.9099 4338.08 27.0907Z" id="Polygon" fill="#F2F3F7" fill-rule="evenodd" stroke="none" />
    <path d="M4534.85 1518.58C4534.57 1518.58 3453.52 1518.58 3453.52 1518.58C3453.52 1518.08 3453.52 1518.08 3453.52 1517.58L3453.52 1518.58L4534.85 1518.58C4534.84 1518.58 4534.85 1518.58 4534.85 1518.58" id="g14" fill="url(#gradient_1)" stroke="none" />
    <g id="g34" transform="translate(3453.5178 1256.4176)">
      <g id="Mask-Group">
        <path d="M1081.33 261.187L0 261.187L0 261.16C2.28003 201.96 35.5735 148.187 90.0535 124.853C91.8132 124.107 93.6001 123.387 95.4001 122.693L95.4001 122.693C146.36 103.213 202.76 105.253 253.667 85.8667C296.56 69.52 329.293 35.4133 371.36 17.5867C400.32 5.31995 430.453 0 460.693 0C517.6 0 574.84 18.8667 625.027 45.84C682.267 76.5867 728.013 125.92 787.64 152.587C850.973 180.92 918.8 157.067 982.866 177.64C1003.48 184.253 1021.91 194.867 1038.36 208.947C1044.97 214.627 1077.63 260.933 1081.31 261.187" id="path38" fill="none" stroke="none" />
      </g>
    </g>
    <path d="M611.081 691.196C637.495 628.979 734.255 630.983 784.579 675.335C834.903 719.686 856.633 787.81 888.541 847.294C910.487 888.211 942.347 928.945 987.309 937.68C1026.77 945.349 1067.24 925.814 1096.72 897.999C1126.19 870.184 1147.26 834.626 1170.89 801.528C1233.65 713.628 1332.93 636.03 1437.99 655.058C1513.67 668.767 1572.46 729.302 1618.21 792.231C1663.97 855.16 1703.46 924.971 1764.36 972.767C1803.84 1003.76 1857.66 1024.25 1903.45 1004.19C1926.01 994.302 1943.72 975.819 1959.98 957.086C2026.14 880.875 2095.37 784.032 2195.22 785.691C2282.08 787.135 2346.32 863.759 2408.57 925.464C2496.18 1012.31 2614.72 1082.92 2735.25 1062.14C2818.77 1047.74 2897.41 990.619 2980.72 1006.2C3083.88 1025.49 3135.65 1143.73 3156.8 1248.38C3174.61 1336.59 3183.01 1426.78 3181.78 1516.83L611.081 1516.7L611.081 691.196" id="path46" fill="#E6EAF4" stroke="none" />
    <path d="M611.081 753.872L3173.33 753.872L3173.33 752.352L611.081 752.352L611.081 753.872Z" id="path52" fill="#CAD2EA" stroke="none" />
    <path d="M611.081 908.557L3173.33 908.557L3173.33 907.038L611.081 907.038L611.081 908.557Z" id="path54" fill="#CAD2EA" stroke="none" />
    <path d="M611.081 1063.24L3173.33 1063.24L3173.33 1061.72L611.081 1061.72L611.081 1063.24Z" id="path56" fill="#CAD2EA" stroke="none" />
    <path d="M611.081 1217.93L3173.33 1217.93L3173.33 1216.41L611.081 1216.41L611.081 1217.93Z" id="path58" fill="#CAD2EA" stroke="none" />
    <path d="M611.081 1372.62L3173.33 1372.62L3173.33 1371.1L611.081 1371.1L611.081 1372.62Z" id="path60" fill="#CAD2EA" stroke="none" />
    <path d="M2223.32 1512.46L2127.17 1435.82C2121.56 1431.34 2120.64 1423.18 2125.1 1417.58L2559.29 872.835C2563.76 867.229 2571.92 866.307 2577.53 870.776L2673.69 947.42C2679.29 951.887 2680.21 960.055 2675.74 965.66L2241.56 1510.39C2237.09 1516 2228.93 1516.92 2223.32 1512.46" id="path62" fill="#CAD2EA" stroke="none" />
    <path d="M2151.96 1455.58L2127.17 1435.82C2123.94 1433.24 2122.26 1429.46 2122.28 1425.64C2122.28 1422.8 2123.2 1419.96 2125.1 1417.58L2341.7 1145.81L2151.96 1455.58" id="g64" fill="#A6B4D9" stroke="none" />
    <path d="M2555.78 1514.76L2445.69 1459.99C2439.28 1456.79 2436.66 1449 2439.85 1442.58L2833.74 650.959C2836.94 644.54 2844.73 641.927 2851.16 645.12L2961.25 699.899C2967.66 703.092 2970.28 710.884 2967.08 717.302L2573.18 1508.92C2570 1515.34 2562.2 1517.95 2555.78 1514.76" id="path74" fill="#CAD2EA" stroke="none" />
    <path d="M2491.18 1482.62L2445.69 1459.99C2441.13 1457.71 2438.49 1453.12 2438.49 1448.35C2438.49 1446.4 2438.93 1444.43 2439.85 1442.58L2672.16 975.723L2491.18 1482.62" id="g76" fill="#A6B4D9" stroke="none" />
    <path d="M2965.94 1518.32L2844.8 1497.22C2837.73 1495.98 2833.01 1489.26 2834.24 1482.2L3013.84 451.355C3015.06 444.293 3021.78 439.565 3028.85 440.796L3150 461.901C3157.05 463.133 3161.78 469.855 3160.56 476.917L2980.96 1507.76C2979.73 1514.82 2973 1519.55 2965.94 1518.32" id="path86" fill="#8296C9" stroke="none" />
    <path d="M2898.72 1506.6L2844.8 1497.22C2838.48 1496.11 2834.04 1490.62 2834.05 1484.42C2834.05 1483.68 2834.1 1482.94 2834.24 1482.2L2966.66 722.103L2898.72 1506.6" id="g88" fill="#5870A5" stroke="none" />
    <path d="M1769.5 1513.84L1680.16 1429.35C1674.94 1424.43 1674.72 1416.22 1679.65 1411L1924.21 1152.42C1929.14 1147.21 1937.36 1146.98 1942.56 1151.91L2031.9 1236.4C2037.1 1241.32 2037.34 1249.54 2032.41 1254.75L1787.85 1513.34C1782.92 1518.55 1774.7 1518.78 1769.5 1513.84" id="path98" fill="#CAD2EA" stroke="none" />
    <path d="M1976.08 1511.63L1886.73 1427.14C1881.53 1422.2 1881.3 1413.99 1886.22 1408.78L2236.8 1038.1C2241.73 1032.89 2249.94 1032.67 2255.16 1037.59L2344.49 1122.09C2349.7 1127.01 2349.93 1135.23 2345 1140.43L1994.42 1511.11C1989.5 1516.32 1981.28 1516.55 1976.08 1511.63" id="path100" fill="#CAD2EA" stroke="none" />
    <path d="M1892.1 1432.2L1886.73 1427.14C1884.02 1424.58 1882.66 1421.12 1882.68 1417.67C1882.68 1414.48 1883.86 1411.28 1886.22 1408.78L2041.77 1244.32L2041.77 1244.32L2032.41 1254.75L1892.1 1432.2" id="g102" fill="#A6B4D9" stroke="none" />
    <path d="M3702.46 1504.5C3710.97 1496.48 3712.9 1494.76 3712.9 1494.76L3706.41 1486.32L3725.29 1474.86L3738.48 1498.51L3709.33 1516.67L3678.1 1516.67C3683.46 1509.96 3695.13 1507.12 3702.46 1504.5" id="path112" fill="#1F1949" stroke="none" />
    <path d="M3425.12 1186.56C3425.12 1186.56 3518.52 1296.76 3550.73 1337.44C3582.96 1378.11 3707.53 1485.64 3707.53 1485.64L3723.68 1475.83L3616.1 1297.42C3616.1 1297.42 3541.1 1098.42 3467.08 1103.4L3425.12 1186.56" id="path114" fill="#181D28" stroke="none" />
    <path d="M3479.37 1096.72L3373.7 1103.31C3373.7 1103.31 3346.25 1208.37 3323.33 1266.48C3317.49 1281.28 3315.13 1297.22 3316.53 1313.07C3322.34 1378.75 3346.45 1496.74 3346.45 1496.74L3355.26 1498.48L3363 1492.68L3387.96 1319.76C3388.45 1316.38 3389.81 1313.18 3391.93 1310.5C3421.69 1272.83 3513.52 1149.07 3479.37 1096.72" id="path116" fill="#181D28" stroke="none" />
    <path d="M3402.96 1144.39C3420.44 1140.5 3437.46 1134.91 3453.49 1126.83C3463.01 1122.03 3482.56 1113.64 3481.56 1100.29C3481.25 1096.23 3478.25 1092.75 3474.65 1090.82C3471.06 1088.9 3466.93 1088.26 3462.89 1087.77C3433.16 1084.11 3402.56 1086.36 3374.09 1095.74C3364.96 1098.75 3355.92 1102.56 3348.36 1108.52C3336.38 1117.95 3329.01 1132.27 3326.28 1147.1C3326.02 1148.47 3325.45 1150.35 3326.18 1151.67C3327.02 1153.2 3328.84 1152.84 3330.3 1152.78C3354.45 1151.83 3379.13 1149.69 3402.96 1144.39" id="g118" fill="#43199D" stroke="none" />
    <path d="M3453.52 1220.2L3425.12 1180.73C3425.12 1180.73 3411.77 1277.02 3399.53 1300.72C3399.53 1300.72 3445.62 1240.4 3453.52 1220.2" id="path128" fill="#000000" stroke="none" />
    <path d="M3328.52 849.425C3328.52 849.425 3317.26 907.501 3346.54 903.433C3375.82 899.367 3390.85 864.085 3379 843.516C3367.14 822.947 3333.49 811.199 3328.52 849.425" id="path130" fill="#DA8C8D" stroke="none" />
    <path d="M3349.81 868.373C3359.12 866.619 3368.28 863.204 3375.68 857.295C3376.86 856.348 3378.05 855.269 3378.53 853.829C3379.36 851.311 3377.76 848.612 3375.78 846.832C3372.06 843.457 3367.02 841.935 3362.09 841.009C3352.02 839.124 3341.09 839.449 3332.27 844.632C3326.04 848.28 3321.24 854.732 3320.01 861.887C3319.62 864.156 3318.81 869.144 3321.7 870.087C3323.25 870.589 3325.18 870.312 3326.77 870.292C3329.13 870.26 3331.5 870.203 3333.85 870.096C3339.2 869.856 3344.54 869.367 3349.81 868.373" id="g132" fill="#C17276" stroke="none" />
    <path d="M3382.84 854.966C3382.84 854.966 3383.68 884.098 3392.02 910.059C3393.89 915.871 3391.92 922.227 3386.96 925.796C3380.17 930.688 3370.4 936.571 3362.1 937.067C3347.73 937.925 3358.69 874.699 3358.69 874.699L3382.84 854.965" id="path142" fill="#DA8C8D" stroke="none" />
    <path d="M3355.37 901.133C3355.37 901.133 3364.61 897.972 3374.5 885.829C3374.5 885.829 3371.21 907.012 3354.73 912.915C3354.73 912.915 3355.08 904.536 3355.37 901.133" id="path144" fill="#C17276" stroke="none" />
    <path d="M3374.49 831.496C3364 840.364 3345.86 848.063 3331.93 847.332C3324.17 846.925 3316.7 842.353 3312.22 836.088C3306.38 827.924 3306.45 817.024 3316.24 812.233C3326.18 807.365 3338.09 807.525 3348.85 808.595C3357.25 809.429 3373.78 809.755 3378.52 818.241C3381.32 823.263 3378.94 827.729 3374.49 831.496" id="path146" fill="#343766" stroke="none" />
    <path d="M3355.89 842.681C3357.96 850.441 3361.14 857.901 3365.33 864.752C3365.5 862.864 3366.01 860.889 3367.44 859.632C3368.85 858.373 3371.2 858.053 3372.62 859.299C3373.33 859.915 3373.74 860.816 3373.96 861.728C3374.47 863.759 3374.17 865.933 3373.41 867.881C3372.65 869.829 3371.44 871.573 3370.09 873.173C3371.95 875.483 3373.9 877.771 3375.9 880.015C3378.21 882.613 3381.76 883.784 3385.16 883.024L3385.21 883.013C3390.17 870.795 3393.32 858.481 3395.3 845.444C3395.86 841.707 3396.32 837.912 3395.93 834.152C3395.28 827.539 3391.9 821.141 3386.53 817.24C3381.14 813.337 3373.77 812.152 3367.61 814.619C3362.3 816.737 3358.17 821.372 3356.18 826.729C3354.2 832.084 3354.42 837.16 3355.89 842.681" id="path148" fill="#343766" stroke="none" />
    <path d="M3470.4 1120.33C3483.17 1118.05 3496.86 1105.06 3492.57 1094.84C3490.17 1089.14 3487.48 1081.38 3483.21 1073.49C3460.57 1031.69 3467.98 1015.57 3449.93 961.06C3431.72 906.082 3384.18 906.723 3371.38 911.321C3358.58 915.92 3331.65 950.456 3331.49 972.444C3331.33 994.668 3332.37 1016.97 3334.01 1039.13C3335.95 1065.57 3337.16 1092.88 3346.86 1117.87C3350.42 1127.03 3355.89 1134.16 3366.34 1134.48C3382.34 1134.95 3397.9 1130.72 3413.62 1128.47C3428.8 1126.29 3443.96 1124.12 3459.13 1121.94C3462.88 1121.41 3466.67 1120.99 3470.4 1120.33" id="path150" fill="#5B23D1" stroke="none" />
    <path d="M3346.86 1117.87C3346.86 1117.87 3362.16 1097.55 3364.62 1090.13C3367.08 1082.71 3357.05 1015.53 3357.05 1015.53C3357.05 1015.53 3399.81 991.094 3410.28 960.991C3410.28 960.991 3379.18 977.997 3335.4 977.566C3291.61 977.132 3335.4 977.566 3335.4 977.566C3335.4 977.566 3334.93 1095.86 3346.86 1117.87" id="g152" fill="#43199D" stroke="none" />
    <path d="M3336.62 958.692C3336.62 958.692 3318.66 1003.91 3316.1 1096.72L3331.52 1130.83L3354.69 1090.6C3354.69 1090.6 3347.28 980.319 3354.69 958.692L3336.62 958.692" id="path162" fill="#FFFFFF" stroke="none" />
    <path d="M3256.98 909.052L3121.97 848.292L3108.17 869.392C3108.17 869.392 3213.2 959.039 3239.9 964.591C3239.9 964.591 3352.66 991.92 3376.7 967.248C3400.74 942.578 3385.37 909.412 3385.37 909.412L3256.98 909.052" id="path164" fill="#5B23D1" stroke="none" />
    <path d="M3119.97 851.338C3119.97 851.338 3111.16 843.307 3110.16 841.656C3109.17 840.004 3102.81 808.36 3102.81 808.36C3102.81 808.36 3093.2 854.15 3094.49 856.078C3095.8 858.006 3109.8 866.896 3109.8 866.896L3119.97 851.338" id="path166" fill="#DA8C8D" stroke="none" />
    <path d="M3364.96 1485.64L3342.2 1486.38L3344.02 1500.38C3344.02 1500.38 3311.01 1500.82 3304.1 1515.98L3363.61 1515.98L3364.96 1485.64" id="path168" fill="#1F1949" stroke="none" />
    <path d="M3143.22 576.521C3143.09 576.521 3142.96 576.505 3142.82 576.472C3094.64 564.304 3000.61 529.808 2999.66 529.461C2998.82 529.149 2998.38 528.208 2998.69 527.359C2999.01 526.512 2999.96 526.075 3000.8 526.388C3001.74 526.735 3095.6 561.172 3143.62 573.297C3144.5 573.519 3145.02 574.409 3144.81 575.286C3144.62 576.028 3143.96 576.521 3143.22 576.521" id="path170" fill="#343766" stroke="none" />
    <path d="M2969.29 500.104C2966.38 500.104 2963.6 500.952 2960.97 502.644C2957.94 504.596 2956.1 508.029 2956.4 511.187C2956.65 513.924 2958.46 516.659 2961.24 518.5C2967.56 522.684 2975 523.2 2982.88 523.745C2987.48 524.064 2992.17 524.391 2996.69 525.507C2996.17 524.069 2995.6 522.652 2994.97 521.257C2991.32 513.104 2982.96 503.467 2974.04 500.821C2972.42 500.343 2970.84 500.104 2969.29 500.104L2969.29 500.104ZM3001.88 530.808C3003.49 536.419 3004.65 542.151 3005.8 547.768C3006.76 552.499 3007.76 557.392 3009 562.039C3011.92 572.982 3015.88 579.187 3021.1 581.01C3023.68 581.907 3025.7 581.635 3027.32 580.186C3030.6 577.242 3031.62 569.747 3030.5 564.862C3030.1 563.127 3029.57 561.37 3028.93 559.639C3024.3 547.242 3014.46 536.77 3001.88 530.808L3001.88 530.808ZM3023.82 584.796C3022.7 584.796 3021.44 584.594 3020.02 584.102C3011.6 581.161 3007.89 570.583 3005.84 562.883C3004.57 558.142 3003.57 553.199 3002.58 548.422C3001.29 542.048 2999.96 535.524 2997.98 529.262C2993.2 527.744 2988.05 527.387 2982.65 527.014C2974.7 526.462 2966.48 525.891 2959.44 521.231C2955.82 518.847 2953.48 515.204 2953.13 511.487C2952.73 507.079 2955.1 502.528 2959.2 499.892C2964.05 496.76 2969.36 496.019 2974.97 497.682C2985.29 500.744 2994.12 511.355 2997.96 519.919C2998.94 522.137 2999.82 524.404 3000.6 526.702C3001.25 526.95 3001.9 527.219 3002.56 527.516C3016.26 533.778 3026.98 545.07 3032 558.495L3032 558.496C3032.69 560.358 3033.26 562.252 3033.69 564.125C3034.82 569.049 3034.29 578.335 3029.5 582.623C3028.28 583.719 3026.42 584.796 3023.82 584.796" id="path172" fill="#343766" fill-rule="evenodd" stroke="none" />
    <path d="M4575.48 961.359C4575.48 1115.65 4450.4 1240.72 4296.12 1240.72C4141.83 1240.72 4016.74 1115.65 4016.74 961.359C4016.74 807.07 4141.82 681.992 4296.12 681.992C4450.4 681.992 4575.48 807.07 4575.48 961.359" id="path174" fill="#FFFFFF" stroke="none" />
    <path d="M4455.13 765.645C4443.34 766.916 4431.57 768.188 4419.8 769.459C4417.34 769.723 4414.66 769.931 4412.64 768.54C4410.81 767.288 4409.98 765.063 4408.9 763.131C4403.8 753.979 4391.73 750.654 4381.42 752.611C4371.13 754.568 4362.18 760.664 4353.56 766.619L4333.05 780.779C4332 781.506 4331.04 782.372 4330.28 783.404C4325.32 790.136 4331.69 796.463 4337.01 800.923C4341.62 804.794 4346.4 811.063 4343.26 816.21C4333.61 823.015 4317.61 816.9 4310.09 826.006C4304.97 832.207 4307.08 842.252 4301.89 848.403C4298.29 852.679 4292.28 853.764 4287.08 855.835C4280.96 858.275 4274.64 864.411 4279.12 871.076C4279.46 871.586 4279.85 872.06 4280.29 872.498C4290.06 882.355 4306.9 883.744 4318.3 875.99C4325.29 871.238 4330.09 863.676 4337.36 859.368C4353.28 849.936 4373.33 859.3 4389.33 868.58C4398.89 874.124 4409.53 881.223 4410.2 892.492C4410.26 893.716 4410.2 894.954 4409.86 896.132C4407.9 903.143 4400.08 903.977 4393.65 903.5C4359.96 900.992 4325.97 882.185 4294.04 893.227C4290.58 894.42 4287.13 896.036 4284.76 898.823C4282.2 901.851 4281.21 905.884 4280.44 909.781C4277.78 923.206 4276.69 936.943 4277.22 950.617C4277.85 967.064 4283.13 986.343 4298.7 991.699C4309.92 995.562 4324.4 991.178 4332.68 999.685C4338.57 1005.74 4338.06 1015.35 4337.49 1023.78C4334.93 1061.14 4339.18 1100.37 4359.2 1132.07C4359.81 1133.04 4360.76 1133.79 4361.86 1134.08C4364 1134.63 4365.09 1133.13 4366.06 1131.78C4385.3 1105.04 4419.32 1090.64 4434.93 1061.63C4446.58 1039.99 4445.86 1014.08 4444.86 989.532C4444.75 986.463 4444.57 983.256 4443.04 980.595C4441.38 977.712 4438.4 975.918 4435.69 973.983C4418.18 961.468 4409.62 937.699 4415.1 916.9C4419.46 929.317 4423.84 941.737 4428.2 954.156C4429.69 958.411 4431.89 963.304 4436.33 964.152C4439.26 964.715 4442.17 963.218 4444.8 961.768C4452.37 957.587 4459.93 953.407 4467.5 949.226C4472.97 946.206 4478.62 943.025 4482.26 937.954C4485.91 932.88 4486.91 925.335 4482.85 920.586C4478.97 916.052 4472.17 915.603 4466.24 916.203C4460.3 916.804 4454.06 918.064 4448.56 915.78C4443.04 913.496 4439.44 905.704 4443.61 901.44C4461.96 908.735 4480.29 916.027 4498.64 923.322C4500.62 924.108 4502.69 924.961 4504.02 926.62C4505.33 928.244 4505.73 930.396 4506.09 932.45C4508.41 945.722 4510.72 958.992 4513.04 972.264C4514.38 979.96 4519.33 990.006 4526.73 987.5C4530.84 986.107 4532.58 981.376 4533.98 977.266C4538.5 964.066 4544.89 951.51 4552.91 940.094C4554.69 937.556 4556.79 934.91 4559.8 934.146C4564.58 932.931 4568.97 936.94 4572.29 940.596C4580.22 949.316 4588.14 958.036 4596.08 966.756C4599.14 970.131 4602.46 973.66 4606.86 974.84C4612.3 976.298 4618.04 973.772 4622.64 970.527C4636.29 960.907 4644.32 944.974 4648.38 928.774C4653.3 909.204 4653.2 888.744 4652.24 868.59C4651.33 849.507 4649.46 829.756 4639.98 813.164C4631.61 798.487 4617.97 787.578 4603.93 778.179C4585.06 765.562 4564.46 754.908 4542.29 749.55C4532.9 747.279 4521.82 744.859 4512.12 746.158C4503.94 747.25 4497.76 754.5 4490.44 757.799C4479.38 762.787 4467.08 764.355 4455.13 765.646M4097.2 1045.45C4111.86 1053.59 4121.18 1068.88 4134.86 1078.58C4147.97 1087.89 4164.88 1091.94 4175.64 1103.87C4190.29 1120.11 4188.64 1144.8 4186.1 1166.52C4184.84 1177.45 4183.56 1188.42 4180.76 1199.06C4178.92 1206.02 4176.26 1213.09 4171 1217.99C4163.77 1224.71 4152.77 1226.06 4143.18 1223.74C4133.6 1221.41 4125.12 1215.94 4117.02 1210.31C4089.06 1190.85 4062.86 1167.96 4044.4 1139.33C4031.3 1119.05 4022.34 1095.73 4020.21 1071.59C4019.68 1065.6 4019.57 1059.58 4019.94 1053.59C4020.16 1050.12 4019.52 1042.89 4023.24 1041.06C4025.37 1040.01 4029.18 1040.59 4031.53 1040.44C4034.6 1040.24 4037.66 1039.98 4040.73 1039.72C4046.73 1039.22 4052.74 1038.67 4058.77 1038.43C4071.9 1037.92 4085.48 1038.94 4097.2 1045.45M4185.01 740.015C4181.93 743.247 4179.85 747.308 4178.29 751.496C4172.12 768.205 4174.1 786.697 4171.65 804.343C4169.2 821.987 4159.57 841.235 4142.1 844.731C4136.96 845.76 4131.64 845.286 4126.41 844.805C4106.04 842.939 4085.66 841.072 4065.28 839.204C4062.18 838.92 4059 838.605 4056.29 837.071C4053.93 835.731 4052.16 833.559 4050.74 831.243C4045.52 822.646 4044.93 812.083 4044.92 802.021C4044.9 779.443 4047.69 755.368 4061.97 737.87C4068.68 729.638 4077.52 723.423 4086.58 717.891C4108.88 704.291 4133.58 694.28 4159.36 689.759C4171.89 687.561 4184.88 686.482 4197.58 687.444C4205.08 688.011 4212.08 689.917 4216.41 696.474C4222.6 705.828 4227.16 721.191 4225.86 732.272C4211.78 732.223 4196.09 728.373 4185.01 740.015M4051.22 896.671C4051.37 900.876 4052.18 905.892 4056.04 907.605C4060.09 909.411 4064.54 906.253 4067.68 903.105C4077.09 893.617 4084.6 882.235 4089.61 869.836C4085.98 864.209 4078.29 863.26 4071.61 862.872C4066.92 862.6 4061.8 861.696 4057.12 862.093C4053.61 862.391 4052.85 864.423 4052.41 867.62C4051.09 877.273 4051.22 886.961 4051.22 896.671M4256.18 844.016C4253.17 846.064 4250.09 848.195 4248.01 851.191C4245.93 854.188 4245.04 858.277 4246.7 861.521C4248.13 864.301 4251.14 865.947 4254.18 866.691C4258.62 867.78 4263.61 867.177 4267.28 864.436C4270.94 861.695 4272.96 856.656 4271.54 852.3C4270.14 847.947 4264.98 844.985 4260.68 846.529M4401.77 1111.91C4398.02 1114.49 4394.22 1117.12 4391.34 1120.65C4388.46 1124.17 4386.58 1128.77 4387.33 1133.26C4387.6 1134.93 4388.3 1136.64 4389.72 1137.6C4391.28 1138.66 4393.34 1138.56 4395.22 1138.32C4401.09 1137.58 4406.97 1135.87 4411.77 1132.41C4416.57 1128.95 4420.18 1123.56 4420.57 1117.65C4420.84 1113.37 4419.01 1107.51 4415.12 1105.14C4412.86 1103.78 4411.12 1105.48 4409.25 1106.76C4406.76 1108.48 4404.26 1110.19 4401.77 1111.91M4563.02 1004.15C4560.58 1010.6 4557.37 1017.12 4551.77 1021.16C4549.82 1022.56 4547.52 1023.75 4546.46 1025.91C4545.58 1027.71 4545.77 1029.84 4546.1 1031.83C4548 1043.29 4553.85 1054.05 4562.44 1061.86C4575.85 1052.18 4583.89 1036.44 4587.53 1020.3C4591.17 1004.15 4590.85 987.416 4590.53 970.872C4590.37 963.239 4590.14 935.113 4575.68 941.797C4570.01 944.419 4570.14 949.345 4570.46 954.752C4570.93 962.701 4570.61 970.697 4569.52 978.583C4568.3 987.308 4566.13 995.903 4563.02 1004.15" id="g176" fill="#CAD2EA" stroke="none" />
    <path d="M3557.33 612.358C3506.93 608.637 3469 563.43 3474.08 513.157C3479.04 464.092 3522.54 427.976 3571.82 432.287C3621.52 436.632 3658.28 480.443 3653.93 530.141C3649.62 579.423 3606.5 615.987 3557.33 612.358L3557.33 612.358ZM3728.12 491.556L3707.25 491.544C3706.68 491.544 3706.17 491.142 3706.05 490.578C3702.28 473.974 3695.66 458.448 3686.76 444.535C3686.45 444.044 3686.52 443.403 3686.93 442.991L3701.86 428.072C3704.42 425.519 3704.42 421.378 3701.86 418.818L3667.57 384.471C3665.01 381.924 3660.86 381.911 3658.32 384.471L3643.22 399.551C3642.81 399.951 3642.17 400.018 3641.68 399.711C3627.8 390.951 3612.34 384.471 3595.81 380.778C3595.25 380.657 3594.85 380.151 3594.85 379.578L3594.86 358.138C3594.86 354.524 3591.93 351.604 3588.32 351.591L3539.79 351.564C3536.17 351.564 3533.24 354.498 3533.24 358.111L3533.23 379.538C3533.23 380.124 3532.81 380.618 3532.25 380.738C3515.72 384.404 3500.25 390.871 3486.36 399.618C3485.88 399.938 3485.24 399.858 3484.83 399.458L3469.75 384.364C3467.2 381.804 3463.05 381.804 3460.49 384.351L3426.16 418.657C3423.6 421.204 3423.6 425.352 3426.15 427.908L3441.07 442.846C3441.48 443.258 3441.55 443.899 3441.23 444.39C3432.31 458.292 3425.68 473.81 3421.89 490.41C3421.76 490.974 3421.27 491.375 3420.68 491.375L3399.83 491.362C3396.21 491.36 3393.28 494.288 3393.28 497.902L3393.24 551.742C3393.24 552.427 3393.8 552.983 3394.48 552.984L3420.32 552.999C3420.91 552.999 3421.4 553.408 3421.52 553.978C3425.16 570.776 3431.69 586.5 3440.57 600.592C3440.88 601.083 3440.81 601.719 3440.4 602.128L3426.04 616.472C3423.48 619.026 3423.48 623.168 3426.03 625.726L3460.33 660.068C3462.89 662.624 3467.03 662.627 3469.59 660.074L3483.79 645.887C3484.2 645.475 3484.84 645.41 3485.33 645.724C3499.44 654.779 3515.21 661.466 3532.08 665.231C3532.65 665.358 3533.05 665.856 3533.05 666.438L3533.04 686.402C3533.04 690.015 3535.96 692.946 3539.59 692.947L3588.12 692.976C3591.73 692.978 3594.67 690.051 3594.67 686.438L3594.68 666.475C3594.68 665.894 3595.08 665.394 3595.65 665.268C3612.53 661.524 3628.31 654.856 3642.43 645.818C3642.91 645.503 3643.56 645.57 3643.96 645.982L3658.15 660.186C3660.71 662.742 3664.85 662.745 3667.4 660.191L3701.75 625.889C3704.31 623.335 3704.31 619.193 3701.75 616.635L3687.41 602.275C3687 601.866 3686.93 601.229 3687.24 600.739C3696.13 586.656 3702.68 570.942 3706.35 554.147C3706.47 553.578 3706.96 553.17 3707.55 553.17L3728.08 553.182C3731.69 553.184 3734.63 550.256 3734.63 546.643L3734.65 498.103C3734.65 494.49 3731.73 491.559 3728.12 491.557" id="path198" fill="#CAD2EA" fill-rule="evenodd" stroke="none" />
    <path d="M3784.34 463.137C3754.89 451.783 3740.4 417.884 3752.54 388.751C3764.41 360.324 3796.96 346.604 3825.64 358.111C3854.56 369.711 3868.6 402.564 3857 431.492C3845.49 460.172 3813.08 474.217 3784.34 463.137L3784.34 463.137ZM3908.33 421.871L3895.86 418.084C3895.52 417.977 3895.29 417.644 3895.32 417.284C3896.06 406.671 3894.93 396.191 3892.13 386.257C3892.02 385.911 3892.18 385.537 3892.5 385.364L3904.13 379.151C3906.13 378.097 3906.88 375.617 3905.81 373.631L3891.53 346.884C3890.46 344.884 3888 344.137 3886 345.204L3874.25 351.484C3873.93 351.644 3873.53 351.577 3873.3 351.297C3866.58 343.551 3858.52 336.871 3849.3 331.671C3849 331.497 3848.85 331.124 3848.94 330.777L3852.84 317.964C3853.49 315.804 3852.28 313.524 3850.12 312.871L3821.1 304.057C3818.94 303.404 3816.66 304.617 3816.01 306.777L3812.12 319.591C3812.01 319.937 3811.68 320.164 3811.32 320.137C3800.77 319.324 3790.36 320.391 3780.47 323.097C3780.12 323.204 3779.74 323.044 3779.57 322.724L3773.29 310.964C3772.24 308.977 3769.76 308.231 3767.77 309.284L3741.03 323.577C3739.03 324.631 3738.28 327.111 3739.35 329.097L3745.56 340.737C3745.73 341.057 3745.65 341.457 3745.37 341.684C3737.52 348.377 3730.75 356.457 3725.47 365.697C3725.29 366.004 3724.92 366.164 3724.57 366.057L3712.1 362.271C3709.95 361.604 3707.67 362.831 3707.01 364.991L3697.24 397.164C3697.1 397.577 3697.35 398.017 3697.75 398.137L3713.19 402.831C3713.55 402.937 3713.76 403.271 3713.73 403.631C3712.87 414.337 3713.92 424.915 3716.68 434.948C3716.77 435.297 3716.61 435.664 3716.29 435.836L3705.1 441.808C3703.12 442.872 3702.37 445.348 3703.43 447.339L3717.72 474.084C3718.77 476.076 3721.25 476.828 3723.24 475.764L3734.31 469.857C3734.63 469.685 3735.03 469.763 3735.25 470.039C3742.05 478.009 3750.26 484.863 3759.67 490.171C3759.99 490.349 3760.13 490.721 3760.02 491.069L3756.41 503C3755.74 505.16 3756.97 507.443 3759.13 508.099L3788.15 516.911C3790.3 517.567 3792.58 516.348 3793.24 514.188L3796.86 502.256C3796.97 501.909 3797.3 501.684 3797.66 501.712C3808.44 502.531 3819.08 501.404 3829.14 498.557C3829.5 498.459 3829.86 498.615 3830.04 498.936L3835.94 509.997C3837.01 511.988 3839.49 512.741 3841.48 511.677L3868.22 497.393C3870.21 496.329 3870.97 493.855 3869.9 491.863L3863.93 480.68C3863.76 480.36 3863.84 479.967 3864.1 479.731C3871.98 472.924 3878.74 464.716 3883.97 455.337C3884.14 455.02 3884.52 454.867 3884.86 454.972L3897.14 458.7C3899.3 459.356 3901.58 458.136 3902.24 455.977L3911.05 426.965C3911.7 424.805 3910.49 422.524 3908.33 421.871" id="path200" fill="#CAD2EA" fill-rule="evenodd" stroke="none" />
    <path d="M3640.29 346.991C3623.76 338.991 3616.97 318.644 3625.4 302.324C3633.64 286.404 3653.17 280.004 3669.25 288.044C3685.48 296.151 3692.05 315.871 3683.94 332.098C3675.9 348.178 3656.44 354.791 3640.29 346.991L3640.29 346.991ZM3714.18 328.964L3707.13 326.164C3706.93 326.097 3706.81 325.884 3706.85 325.684C3707.8 319.564 3707.64 313.431 3706.48 307.538C3706.44 307.324 3706.54 307.124 3706.74 307.044L3713.78 303.991C3715 303.471 3715.54 302.071 3715.02 300.857L3708.01 284.671C3707.49 283.457 3706.09 282.911 3704.89 283.431L3697.77 286.511C3697.57 286.591 3697.34 286.537 3697.22 286.364C3693.7 281.537 3689.34 277.284 3684.25 273.831C3684.08 273.711 3684.01 273.484 3684.08 273.297L3686.94 266.044C3687.44 264.831 3686.84 263.444 3685.61 262.964L3669.21 256.471C3667.98 255.977 3666.6 256.577 3666.12 257.804L3663.25 265.044C3663.17 265.244 3662.97 265.364 3662.76 265.324C3656.68 264.351 3650.58 264.471 3644.73 265.577C3644.52 265.617 3644.32 265.511 3644.22 265.311L3641.14 258.191C3640.62 256.991 3639.22 256.431 3638.02 256.964L3621.82 263.964C3620.62 264.484 3620.06 265.884 3620.58 267.097L3623.64 274.137C3623.72 274.337 3623.65 274.564 3623.48 274.684C3618.61 278.19 3614.29 282.551 3610.8 287.657C3610.68 287.83 3610.45 287.897 3610.26 287.817L3603.21 285.031C3601.98 284.551 3600.6 285.151 3600.12 286.364L3592.92 304.564C3592.82 304.804 3592.93 305.057 3593.17 305.151L3601.9 308.604C3602.09 308.684 3602.21 308.897 3602.18 309.097C3601.16 315.271 3601.26 321.457 3602.38 327.404C3602.42 327.617 3602.32 327.817 3602.13 327.911L3595.36 330.831C3594.14 331.351 3593.6 332.764 3594.12 333.964L3601.13 350.164C3601.65 351.364 3603.05 351.924 3604.25 351.391L3610.94 348.497C3611.14 348.417 3611.37 348.471 3611.49 348.644C3615.05 353.59 3619.49 357.964 3624.69 361.484C3624.86 361.604 3624.94 361.83 3624.86 362.03L3622.18 368.777C3621.7 370.004 3622.3 371.377 3623.53 371.871L3639.93 378.364C3641.16 378.844 3642.53 378.244 3643.02 377.017L3645.69 370.271C3645.77 370.071 3645.97 369.964 3646.18 369.991C3652.38 370.991 3658.61 370.844 3664.6 369.671C3664.8 369.631 3665.01 369.737 3665.09 369.937L3668 376.631C3668.52 377.831 3669.92 378.391 3671.12 377.871L3687.32 370.857C3688.52 370.337 3689.08 368.937 3688.56 367.724L3685.62 360.964C3685.54 360.764 3685.6 360.537 3685.77 360.417C3690.66 356.844 3694.97 352.404 3698.45 347.217C3698.57 347.044 3698.8 346.964 3699 347.044L3705.93 349.791C3707.16 350.271 3708.53 349.684 3709.02 348.457L3715.52 332.044C3716 330.831 3715.4 329.444 3714.18 328.964" id="path202" fill="#CAD2EA" fill-rule="evenodd" stroke="none" />
    <path d="M3629.58 951.279L3629.58 1071.09L3749.8 951.279L3629.58 951.279Z" id="path204" fill="#E6EAF4" stroke="none" />
    <path d="M4290.49 960.508L3573.44 960.508C3553.73 960.508 3537.77 944.54 3537.77 924.844L3537.77 527.308C3537.77 507.611 3553.73 491.644 3573.44 491.644L4290.49 491.644C4310.18 491.644 4326.16 507.611 4326.16 527.308L4326.16 924.844C4326.16 944.54 4310.18 960.508 4290.49 960.508" id="path206" fill="#E6EAF4" stroke="none" />
    <g id="g208" transform="translate(3537.7712 491.64417)">
      <g id="Mask-Group">
        <path d="M752.72 468.864L35.6667 468.864C15.96 468.864 0 452.896 0 433.2L0 35.6641C0 15.9666 15.96 0 35.6667 0L752.72 0C772.413 0 788.386 15.9666 788.386 35.6641L788.386 433.2C788.386 452.896 772.413 468.864 752.72 468.864" id="path212" fill="none" stroke="none" />
        <g clip-path="url(#mask_2)">
          <g id="g210" transform="translate(59.17285 108.13989)">
            <g id="Group" filter="url(#filter_1)">
              <path d="M0.000488281 248.508L0.000488281 323.204" id="Line" fill="none" fill-rule="evenodd" stroke="#000000" stroke-width="-0.13333333" />
              <path d="M76.6936 180.631L0.000488281 248.508" id="Line" fill="none" fill-rule="evenodd" stroke="#000000" stroke-width="-0.13333333" />
              <path d="M108.187 216.923L76.6938 180.631" id="Line" fill="none" fill-rule="evenodd" stroke="#000000" stroke-width="-0.13333333" />
              <path d="M197.894 125.852L108.187 216.923" id="Line" fill="none" fill-rule="evenodd" stroke="#000000" stroke-width="-0.13333333" />
              <path d="M271.84 136.808L197.894 125.852" id="Line" fill="none" fill-rule="evenodd" stroke="#000000" stroke-width="-0.13333333" />
              <path d="M333.507 82.2081L271.84 136.808" id="Line" fill="none" fill-rule="evenodd" stroke="#000000" stroke-width="-0.13333333" />
              <path d="M385.867 93.3054L333.507 82.2081" id="Line" fill="none" fill-rule="evenodd" stroke="#000000" stroke-width="-0.13333333" />
              <path d="M471.76 8.14404L385.867 93.3054" id="Line" fill="none" fill-rule="evenodd" stroke="#000000" stroke-width="-0.13333333" />
              <path d="M544.96 6.10352e-05L471.76 8.14404" id="Line" fill="none" fill-rule="evenodd" stroke="#000000" stroke-width="-0.13333333" />
              <path d="M628.053 174.276L544.96 0" id="Line" fill="none" fill-rule="evenodd" stroke="#000000" stroke-width="-0.13333333" />
              <path d="M693.947 323.204L628.053 174.276" id="Line" fill="none" fill-rule="evenodd" stroke="#000000" stroke-width="-0.13333333" />
              <path d="M3.88013 323.204L693.947 323.204" id="Line" fill="none" fill-rule="evenodd" stroke="#000000" stroke-width="-0.13333333" />
              <path d="M0 323.204L3.87988 323.204" id="Line" fill="none" fill-rule="evenodd" stroke="#000000" stroke-width="-0.13333333" />
            </g>
          </g>
        </g>
      </g>
    </g>
    <g id="Group" transform="translate(3563.9446 526.0228)" filter="url(#filter_1)">
      <path d="M0 2.56921L733.013 2.56921" id="Line" fill="none" fill-rule="evenodd" stroke="#000000" stroke-width="-0.13333333" />
      <path d="M0 0L0 2.56927" id="Line" fill="none" fill-rule="evenodd" stroke="#000000" stroke-width="-0.13333333" />
      <path d="M733.013 0L0 0" id="Line" fill="none" fill-rule="evenodd" stroke="#000000" stroke-width="-0.13333333" />
      <path d="M733.013 2.56927L733.013 0" id="Line" fill="none" fill-rule="evenodd" stroke="#000000" stroke-width="-0.13333333" />
    </g>
    <g id="Group" transform="translate(3563.9446 561.9935)" filter="url(#filter_1)">
      <path d="M0 2.56921L733.013 2.56921" id="Line" fill="none" fill-rule="evenodd" stroke="#000000" stroke-width="-0.13333333" />
      <path d="M0 0L0 2.56927" id="Line" fill="none" fill-rule="evenodd" stroke="#000000" stroke-width="-0.13333333" />
      <path d="M733.013 0L0 0" id="Line" fill="none" fill-rule="evenodd" stroke="#000000" stroke-width="-0.13333333" />
      <path d="M733.013 2.56927L733.013 0" id="Line" fill="none" fill-rule="evenodd" stroke="#000000" stroke-width="-0.13333333" />
    </g>
    <g id="Group" transform="translate(3563.9446 597.96545)" filter="url(#filter_1)">
      <path d="M0 2.56934L733.013 2.56934" id="Line" fill="none" fill-rule="evenodd" stroke="#000000" stroke-width="-0.13333333" />
      <path d="M0 0.00012207L0 2.5694" id="Line" fill="none" fill-rule="evenodd" stroke="#000000" stroke-width="-0.13333333" />
      <path d="M733.013 0L0 0" id="Line" fill="none" fill-rule="evenodd" stroke="#000000" stroke-width="-0.13333333" />
      <path d="M733.013 2.5694L733.013 0.00012207" id="Line" fill="none" fill-rule="evenodd" stroke="#000000" stroke-width="-0.13333333" />
    </g>
    <g id="Group" transform="translate(3563.9446 633.93616)" filter="url(#filter_1)">
      <path d="M0 2.56934L733.013 2.56934" id="Line" fill="none" fill-rule="evenodd" stroke="#000000" stroke-width="-0.13333333" />
      <path d="M0 0.00012207L0 2.5694" id="Line" fill="none" fill-rule="evenodd" stroke="#000000" stroke-width="-0.13333333" />
      <path d="M733.013 0L0 0" id="Line" fill="none" fill-rule="evenodd" stroke="#000000" stroke-width="-0.13333333" />
      <path d="M733.013 2.5694L733.013 0.00012207" id="Line" fill="none" fill-rule="evenodd" stroke="#000000" stroke-width="-0.13333333" />
    </g>
    <path d="M3563.94 672.476L4296.97 672.476L4296.97 669.907L3563.94 669.907L3563.94 672.476Z" id="path226" fill="#F2F3F7" stroke="none" />
    <path d="M3563.94 708.448L4296.97 708.448L4296.97 705.877L3563.94 705.877L3563.94 708.448Z" id="path228" fill="#F2F3F7" stroke="none" />
    <path d="M3563.94 744.419L4296.97 744.419L4296.97 741.848L3563.94 741.848L3563.94 744.419Z" id="path230" fill="#F2F3F7" stroke="none" />
    <g id="Group" transform="translate(3563.9446 777.8187)" filter="url(#filter_1)">
      <path d="M0 2.57202L733.013 2.57202" id="Line" fill="none" fill-rule="evenodd" stroke="#000000" stroke-width="-0.13333333" />
      <path d="M0 0L0 2.57202" id="Line" fill="none" fill-rule="evenodd" stroke="#000000" stroke-width="-0.13333333" />
      <path d="M733.013 0L0 0" id="Line" fill="none" fill-rule="evenodd" stroke="#000000" stroke-width="-0.13333333" />
      <path d="M733.013 2.57202L733.013 0" id="Line" fill="none" fill-rule="evenodd" stroke="#000000" stroke-width="-0.13333333" />
    </g>
    <g id="Group" transform="translate(3563.9446 813.7909)" filter="url(#filter_1)">
      <path d="M0 2.57062L733.013 2.57062" id="Line" fill="none" fill-rule="evenodd" stroke="#000000" stroke-width="-0.13333333" />
      <path d="M0 0L0 2.57062" id="Line" fill="none" fill-rule="evenodd" stroke="#000000" stroke-width="-0.13333333" />
      <path d="M733.013 0L0 0" id="Line" fill="none" fill-rule="evenodd" stroke="#000000" stroke-width="-0.13333333" />
      <path d="M733.013 2.57062L733.013 0" id="Line" fill="none" fill-rule="evenodd" stroke="#000000" stroke-width="-0.13333333" />
    </g>
    <g id="Group" transform="translate(3563.9446 849.7616)" filter="url(#filter_1)">
      <path d="M0 2.57062L733.013 2.57062" id="Line" fill="none" fill-rule="evenodd" stroke="#000000" stroke-width="-0.13333333" />
      <path d="M0 0L0 2.57062" id="Line" fill="none" fill-rule="evenodd" stroke="#000000" stroke-width="-0.13333333" />
      <path d="M733.013 0L0 0" id="Line" fill="none" fill-rule="evenodd" stroke="#000000" stroke-width="-0.13333333" />
      <path d="M733.013 2.57062L733.013 0" id="Line" fill="none" fill-rule="evenodd" stroke="#000000" stroke-width="-0.13333333" />
    </g>
    <g id="Group" transform="translate(3563.9446 885.7335)" filter="url(#filter_1)">
      <path d="M0 2.56934L733.013 2.56934" id="Line" fill="none" fill-rule="evenodd" stroke="#000000" stroke-width="-0.13333333" />
      <path d="M0 0L0 2.56934" id="Line" fill="none" fill-rule="evenodd" stroke="#000000" stroke-width="-0.13333333" />
      <path d="M733.013 0L0 0" id="Line" fill="none" fill-rule="evenodd" stroke="#000000" stroke-width="-0.13333333" />
      <path d="M733.013 2.56934L733.013 0" id="Line" fill="none" fill-rule="evenodd" stroke="#000000" stroke-width="-0.13333333" />
    </g>
    <g id="Group" transform="translate(3563.9446 921.70276)" filter="url(#filter_1)">
      <path d="M0 2.57202L733.013 2.57202" id="Line" fill="none" fill-rule="evenodd" stroke="#000000" stroke-width="-0.13333333" />
      <path d="M0 0L0 2.57202" id="Line" fill="none" fill-rule="evenodd" stroke="#000000" stroke-width="-0.13333333" />
      <path d="M733.013 0L0 0" id="Line" fill="none" fill-rule="evenodd" stroke="#000000" stroke-width="-0.13333333" />
      <path d="M733.013 2.57202L733.013 0" id="Line" fill="none" fill-rule="evenodd" stroke="#000000" stroke-width="-0.13333333" />
    </g>
    <g id="Group" transform="translate(3592.638 596.171)" filter="url(#filter_2)">
      <path d="M0 253.707L4.50684 258.689" id="Line" fill="none" fill-rule="evenodd" stroke="#000000" stroke-width="-0.13333333" />
      <path d="M81.5068 179.964L0 253.707" id="Line" fill="none" fill-rule="evenodd" stroke="#000000" stroke-width="-0.13333333" />
      <path d="M112.6 215.52L81.5068 179.964" id="Line" fill="none" fill-rule="evenodd" stroke="#000000" stroke-width="-0.13333333" />
      <path d="M200.226 125.481L112.6 215.52" id="Line" fill="none" fill-rule="evenodd" stroke="#000000" stroke-width="-0.13333333" />
      <path d="M274.386 136.437L200.227 125.481" id="Line" fill="none" fill-rule="evenodd" stroke="#000000" stroke-width="-0.13333333" />
      <path d="M328.64 77.9399L274.386 136.437" id="Line" fill="none" fill-rule="evenodd" stroke="#000000" stroke-width="-0.13333333" />
      <path d="M385.2 97.5253L328.64 77.9399" id="Line" fill="none" fill-rule="evenodd" stroke="#000000" stroke-width="-0.13333333" />
      <path d="M473.76 8.96265L385.2 97.5253" id="Line" fill="none" fill-rule="evenodd" stroke="#000000" stroke-width="-0.13333333" />
      <path d="M551.88 0L473.76 8.96265" id="Line" fill="none" fill-rule="evenodd" stroke="#000000" stroke-width="-0.13333333" />
      <path d="M552.906 2.17468L551.88 6.10352e-05" id="Line" fill="none" fill-rule="evenodd" stroke="#000000" stroke-width="-0.13333333" />
      <path d="M639.68 185.504L552.906 2.17462" id="Line" fill="none" fill-rule="evenodd" stroke="#000000" stroke-width="-0.13333333" />
      <path d="M633.613 188.379L639.68 185.504" id="Line" fill="none" fill-rule="evenodd" stroke="#000000" stroke-width="-0.13333333" />
      <path d="M547.853 7.224L633.613 188.379" id="Line" fill="none" fill-rule="evenodd" stroke="#000000" stroke-width="-0.13333333" />
      <path d="M476.866 15.3721L547.853 7.224" id="Line" fill="none" fill-rule="evenodd" stroke="#000000" stroke-width="-0.13333333" />
      <path d="M386.986 105.251L476.866 15.3721" id="Line" fill="none" fill-rule="evenodd" stroke="#000000" stroke-width="-0.13333333" />
      <path d="M330.586 85.7267L386.986 105.251" id="Line" fill="none" fill-rule="evenodd" stroke="#000000" stroke-width="-0.13333333" />
      <path d="M276.906 143.603L330.586 85.7266" id="Line" fill="none" fill-rule="evenodd" stroke="#000000" stroke-width="-0.13333333" />
      <path d="M202.64 132.632L276.906 143.603" id="Line" fill="none" fill-rule="evenodd" stroke="#000000" stroke-width="-0.13333333" />
      <path d="M112.347 225.427L202.64 132.632" id="Line" fill="none" fill-rule="evenodd" stroke="#000000" stroke-width="-0.13333333" />
      <path d="M80.9465 189.531L112.346 225.427" id="Line" fill="none" fill-rule="evenodd" stroke="#000000" stroke-width="-0.13333333" />
      <path d="M4.50659 258.689L80.9468 189.531" id="Line" fill="none" fill-rule="evenodd" stroke="#000000" stroke-width="-0.13333333" />
    </g>
    <path d="M4241.2 809.508L4245.37 764.699L4204.48 783.487L4241.2 809.508Z" id="path244" fill="#CAD2EA" stroke="none" />
    <g id="Group" transform="translate(3562.6646 526.0228)" filter="url(#filter_1)">
      <path d="M733.014 395.68L2.57349 395.68" id="Line" fill="none" fill-rule="evenodd" stroke="#000000" stroke-width="-0.13333333" />
      <path d="M733.013 2.56927L733.013 395.68" id="Line" fill="none" fill-rule="evenodd" stroke="#000000" stroke-width="-0.13333333" />
      <path d="M2.57349 2.56927L733.014 2.56927" id="Line" fill="none" fill-rule="evenodd" stroke="#000000" stroke-width="-0.13333333" />
      <path d="M2.57324 395.68L2.57324 2.56927" id="Line" fill="none" fill-rule="evenodd" stroke="#000000" stroke-width="-0.13333333" />
      <path d="M0 398.252L735.587 398.252" id="Line" fill="none" fill-rule="evenodd" stroke="#000000" stroke-width="-0.13333333" />
      <path d="M0 0L0 398.252" id="Line" fill="none" fill-rule="evenodd" stroke="#000000" stroke-width="-0.13333333" />
      <path d="M735.587 6.10352e-05L0 6.10352e-05" id="Line" fill="none" fill-rule="evenodd" stroke="#000000" stroke-width="-0.13333333" />
      <path d="M735.587 398.252L735.587 0" id="Line" fill="none" fill-rule="evenodd" stroke="#000000" stroke-width="-0.13333333" />
    </g>
    <path d="M3872.13 890.294C3867.89 889.184 3865.37 884.854 3866.48 880.622L3904.29 736.729C3905.4 732.499 3909.73 729.971 3913.96 731.082C3918.18 732.195 3920.72 736.526 3919.61 740.754L3881.8 884.648C3880.69 888.878 3876.36 891.406 3872.13 890.294" id="path248" fill="#8296C9" stroke="none" />
    <path d="M3983.96 711.882C3975.14 745.439 3940.8 765.495 3907.24 756.678C3873.68 747.859 3853.62 713.508 3862.44 679.95C3871.25 646.392 3905.61 626.336 3939.17 635.154C3972.72 643.971 3992.78 678.323 3983.96 711.882" id="path250" fill="#8296C9" stroke="none" />
    <path d="M3976.94 710.037C3969.14 739.721 3938.76 757.463 3909.08 749.661C3879.4 741.862 3861.65 711.476 3869.45 681.792C3877.25 652.11 3907.64 634.369 3937.32 642.169C3967.01 649.968 3984.74 680.355 3976.94 710.037" id="path252" fill="#CAD2EA" stroke="none" />
    <g id="g254" transform="translate(3867.6135 640.3312)">
      <g id="Mask-Group">
        <path d="M109.331 69.7062C101.531 99.3903 71.1445 117.132 41.4644 109.33C11.7844 101.53 -5.96216 71.145 1.83789 41.461C9.63794 11.7784 40.0247 -5.96173 69.7046 1.8382C99.3977 9.6369 117.131 40.0236 109.331 69.7062" id="path258" fill="none" stroke="none" />
        <g clip-path="url(#mask_3)">
          <g id="g256" transform="translate(3.0644531 1.0183716)">
            <path d="M20.2666 99.8319C10.8 93.0893 3.76001 83.5599 0 72.7493L63.0535 0C64.2534 0.231934 65.4534 0.505249 66.6401 0.820068C76.9868 3.53601 85.8667 8.99207 92.7334 16.204L20.2666 99.832" id="path262" fill="#BFC9E4" stroke="none" />
            <path d="M36.9866 107.923C32.1064 106.501 27.5464 104.46 23.3997 101.909L95.2397 19.0132C98.2397 22.6252 100.773 26.6025 102.773 30.84L36.9866 107.923" id="path264" fill="#C4CDE7" stroke="none" />
          </g>
        </g>
      </g>
    </g>
    <path d="M4143.94 1297.99L4130.49 1489.84L4110.97 1489.84C4110.97 1489.84 4092.37 1330.24 4091.46 1297.99L4143.94 1297.99" id="path266" fill="#DA8C8D" stroke="none" />
    <path d="M4097.28 1376.51L4111.84 1339.55C4124.57 1308.27 4127.98 1300.31 4145.58 1285.62L4149.69 1282.19L4099.67 1285.24C4099.67 1285.24 4090.49 1315.87 4099.65 1339.71" id="g268" fill="#C17276" stroke="none" />
    <path d="M4131.46 1488.06L4110.08 1488.06L4111.44 1503.4C4111.44 1503.4 4091.73 1504.28 4079.98 1516.99L4130.38 1516.99L4131.46 1488.06" id="path278" fill="#1F1949" stroke="none" />
    <path d="M4102.78 1297.99L4089.33 1489.84L4069.81 1489.84C4069.81 1489.84 4051.21 1330.24 4050.3 1297.99L4102.78 1297.99" id="path280" fill="#DA8C8D" stroke="none" />
    <path d="M4109.15 1306.66L4103 1310.94C4085.54 1323.04 4070.76 1338.59 4059.57 1356.64L4055.83 1362.68L4041.48 1296.15L4109.15 1306.66" id="g282" fill="#C17276" stroke="none" />
    <path d="M4090.3 1488.06L4068.92 1488.06L4070.28 1503.4C4070.28 1503.4 4050.57 1504.28 4038.82 1516.99L4089.22 1516.99L4090.3 1488.06" id="path292" fill="#1F1949" stroke="none" />
    <path d="M4131.18 871.179C4131.29 870.568 4131.34 870.227 4131.34 870.227L4131.26 870.268C4131.6 866.534 4131.29 862.836 4130.2 859.36C4123.76 838.878 4096.41 821.94 4084.61 854.744C4084.61 854.744 4063.44 903.865 4090 905.977C4093.13 906.227 4096.17 906.04 4099.09 905.507C4094.96 920.661 4091.86 938.075 4099.02 939.215C4107.24 940.521 4118.8 936.42 4123.42 932.632C4126.64 929.991 4129.41 926.911 4128.96 922.76C4126.78 903.215 4129.42 882.333 4130.72 873.988C4130.92 873.052 4131.06 872.115 4131.18 871.179" id="path294" fill="#DA8C8D" stroke="none" />
    <path d="M4086.1 905.233C4086.1 905.233 4104.08 900.649 4108.74 888.652C4113.4 876.656 4112.86 926.759 4106.34 929.933C4099.81 933.109 4089.22 929.049 4089.22 929.049L4086.1 905.233" id="g296" fill="#C17276" stroke="none" />
    <path d="M4122.52 916.547C4122.52 916.547 4165.22 935.463 4170.61 956.144C4176.01 976.828 4158.14 1088.26 4158.14 1088.26L4059.52 1088.26C4059.52 1088.26 4039.88 976.828 4047.68 958.083C4055.48 939.34 4084.62 912.499 4122.52 916.547" id="path306" fill="#5B23D1" stroke="none" />
    <path d="M4158.29 916.392C4155.42 921.88 4149.73 925.461 4143.78 927.173C4137.84 928.887 4131.56 928.964 4125.37 929.028C4113.22 929.156 4101 928.823 4089.82 924.089C4095.5 918.631 4100.81 912.521 4103.8 905.221C4106.77 897.923 4107.16 889.236 4103.26 882.375C4100.52 877.528 4095.96 874.003 4092.57 869.58C4087.9 863.485 4085.58 855.633 4086.21 847.981C4086.78 840.935 4089.33 834.685 4095.3 830.907C4101.28 827.127 4108.78 826.315 4115.76 827.488C4120.38 828.267 4124.88 829.875 4128.96 832.212C4138.2 837.517 4145 846.42 4149.29 856.171C4153.58 865.92 4155.57 876.531 4156.84 887.109C4157.98 896.523 4162.68 907.985 4158.29 916.392" id="path308" fill="#343766" stroke="none" />
    <path d="M4088.21 921.274L3995.7 902.106L3981.26 946.936C3981.26 946.936 4020.58 977.33 4044.66 976.82C4068.73 976.311 4088.21 921.274 4088.21 921.274" id="path310" fill="#5B23D1" stroke="none" />
    <path d="M4170.92 956.959L4198.96 1047.17L4155.73 1065.89C4155.73 1065.89 4121.68 1029.69 4119.85 1005.68C4118.02 981.669 4170.92 956.959 4170.92 956.959" id="path312" fill="#5B23D1" stroke="none" />
    <path d="M3994.66 906.272L3949.28 884.57L3897.96 797.18L3888.01 814.275C3888.01 814.275 3915.58 905.976 3927.84 912.828C3940.09 919.679 3982.62 943.627 3982.62 943.627L3994.66 906.272" id="path314" fill="#DA8C8D" stroke="none" />
    <path d="M3991.32 902.105C3991.32 902.105 3980.84 931.224 3961.41 934.307L3991.62 950.032L4002.73 905.941L3991.32 902.105" id="g316" fill="#C17276" stroke="none" />
    <path d="M4195.82 1048.53L4206.22 1092.73C4207.21 1096.27 4207.93 1099.87 4208.38 1103.52L4215.82 1195.99L4201.56 1198.26L4178.54 1101.49L4163.7 1062.44L4195.82 1048.53" id="path326" fill="#DA8C8D" stroke="none" />
    <path d="M4196.53 1051.57C4196.53 1051.57 4190.84 1079.13 4167.92 1081.65L4157.84 1053.68L4197.52 1042.54L4196.53 1051.57" id="g328" fill="#C17276" stroke="none" />
    <g id="Group" transform="translate(4140.171 1185.7296)" filter="url(#filter_3)">
      <path d="M12.6667 98.408L136.507 78.3947" id="Line" fill="none" fill-rule="evenodd" stroke="#000000" stroke-width="-0.13333333" />
      <path d="M0 20.0093L12.6667 98.408" id="Line" fill="none" fill-rule="evenodd" stroke="#000000" stroke-width="-0.13333333" />
      <path d="M123.84 0.00012207L0 20.0094" id="Line" fill="none" fill-rule="evenodd" stroke="#000000" stroke-width="-0.13333333" />
      <path d="M136.507 78.3947L123.84 0" id="Line" fill="none" fill-rule="evenodd" stroke="#000000" stroke-width="-0.13333333" />
    </g>
    <path d="M4264.01 1185.73L4267.56 1259.46L4276.68 1264.12L4264.01 1185.73Z" id="path340" fill="#CAD2EA" stroke="none" />
    <path d="M4201 1195.91C4201 1195.91 4197.94 1209.23 4198.84 1210.1C4199.53 1210.78 4205.24 1203.51 4208.42 1194.71C4211.61 1185.91 4201 1195.91 4201 1195.91" id="path342" fill="#DA8C8D" stroke="none" />
    <path d="M4158.15 1088.26C4158.15 1088.26 4188.72 1139.43 4171.62 1196.64C4154.54 1253.84 4147.76 1308.27 4147.76 1308.27L4045.85 1308.27C4045.85 1308.27 4029.68 1114.11 4059.52 1088.26L4158.14 1088.26" id="path344" fill="#181D28" stroke="none" />
    <path d="M4046.88 1065.52C4046.88 1065.52 4060.52 1201.13 4152.26 1198.22C4244 1195.31 4151.06 1039.69 4151.06 1039.69C4151.06 1039.69 4051.98 1040.2 4046.88 1065.52" id="g346" fill="#43199D" stroke="none" />
    <path d="M4045.88 976.827C4045.88 976.827 4054.33 976.495 4068.38 969.607C4068.38 969.607 4066.65 1001.52 4048 1007.52C4048 1007.52 4045.74 984.985 4045.88 976.827" id="path356" fill="#43199D" stroke="none" />
    <path d="M4161.92 1063.21C4161.92 1063.21 4168.12 993.019 4168.88 976.827C4168.88 976.827 4171.58 1047.22 4168.88 1060.19L4161.92 1063.21" id="path358" fill="#3B33BC" stroke="none" />
    <path d="M3897.96 797.18C3897.96 797.18 3893.28 776.75 3890.81 780.451C3888.34 784.15 3878.12 802.158 3888.01 814.275C3897.9 826.392 3897.96 797.18 3897.96 797.18" id="path360" fill="#DA8C8D" stroke="none" />
    <path d="M1639.98 948.799C1639.98 948.799 1672.18 950.94 1671.85 953.604C1671.5 956.268 1664.58 966.483 1657.28 965.654C1649.97 964.824 1637.57 962.418 1637.57 962.418L1639.98 948.799" id="path362" fill="#DA8C8D" stroke="none" />
    <path d="M1409.52 934.028L1500.14 971.021L1642.9 946.079L1638.61 966.722C1638.61 966.722 1516.86 1017.91 1495.94 1017.4C1475.02 1016.88 1417.33 1003.7 1417.33 1003.7L1409.52 934.028" id="path364" fill="#FF7F0B" stroke="none" />
    <path d="M1440.56 1008.7C1440.56 1008.7 1432.12 993.251 1424.01 975.715C1415.89 958.179 1428.09 963.092 1428.09 963.092C1428.09 963.092 1463.96 1001.28 1481.22 1004.12C1498.47 1006.96 1546.3 1003.03 1546.3 1003.03C1546.3 1003.03 1525.86 1030.58 1503.94 1029.12C1482.03 1027.65 1440.56 1008.7 1440.56 1008.7" id="g366" fill="#CE5827" stroke="none" />
    <path d="M1412.2 1118.33C1412.2 1118.33 1494.78 1242.11 1525.87 1285.55C1556.97 1328.99 1627.4 1484.51 1627.4 1484.51L1611.17 1495.51L1468.63 1339.55C1468.63 1339.55 1293.83 1209.38 1319.03 1136.99L1412.2 1118.33" id="path376" fill="#181D28" stroke="none" />
    <path d="M1447.08 1322.51L1407.15 1192.98C1407.15 1192.98 1479.75 1291.44 1468.63 1339.55C1457.52 1387.66 1468.63 1339.55 1468.63 1339.55L1447.08 1322.51" id="g378" fill="#000000" stroke="none" />
    <path d="M1607.56 1494.55L1627.57 1480.56L1635.73 1495.96C1635.73 1495.96 1667.36 1500.54 1677.82 1516.68L1618.52 1516.68L1617.26 1504.5L1607.56 1494.55" id="path388" fill="#1F1949" stroke="none" />
    <path d="M1397.2 1128.31L1302.53 1120.2C1268.86 1167.55 1336.26 1278.87 1370.85 1329.98L1306.86 1503.66L1324.09 1513.02C1324.09 1513.02 1393.07 1425.63 1432.42 1366.94C1446.6 1345.79 1450.82 1319.51 1443.95 1294.99L1397.2 1128.31" id="path390" fill="#181D28" stroke="none" />
    <path d="M1316.54 1477.38L1346.48 1484.24L1334.85 1499.27C1334.85 1499.27 1364.52 1499.8 1372.21 1516.7L1305.9 1516.7L1306.15 1506.84C1306.01 1503.54 1306.27 1500.7 1307.77 1497.74L1316.54 1477.38" id="path392" fill="#1F1949" stroke="none" />
    <path d="M1294.08 1142.71C1294.08 1142.71 1332.19 1191.46 1447.18 1170.51L1424.56 1134.55L1294.08 1142.71" id="path394" fill="#CE5827" stroke="none" />
    <path d="M1437.46 857.855C1437.46 857.855 1448.23 918.19 1418.38 913.611C1388.53 909.031 1373.62 872.275 1385.97 851.1C1398.33 829.927 1432.85 818.169 1437.46 857.855" id="path396" fill="#DA8C8D" stroke="none" />
    <path d="M1387.89 865.379C1390.73 860.61 1393.58 855.839 1396.43 851.068C1397.28 849.635 1398.17 848.167 1399.5 847.166C1400.74 846.232 1402.28 845.783 1403.78 845.376C1417.1 841.776 1430.97 840.222 1444.76 840.783C1445.95 840.832 1447.18 840.906 1448.26 841.416C1450.24 842.356 1451.29 844.54 1451.95 846.631C1453.8 852.428 1453.74 858.766 1452.02 864.587C1451.16 867.519 1449.87 870.327 1448.19 872.879C1447.12 874.488 1446.02 876.956 1444.07 877.624C1441.29 878.576 1437.9 878.615 1434.99 878.773C1431.82 878.948 1428.64 878.916 1425.48 878.685C1419.15 878.224 1412.87 876.964 1406.86 874.947C1400.86 872.936 1395.12 870.174 1389.83 866.701C1389.18 866.271 1388.53 865.831 1387.89 865.379" id="g398" fill="#C17276" stroke="none" />
    <path d="M1381.92 862.922C1381.92 862.922 1380.39 900.719 1368.37 929.283C1368.37 929.283 1387.4 947.207 1402.08 948.279C1416.75 949.349 1406.33 883.676 1406.33 883.676L1381.92 862.922" id="path408" fill="#DA8C8D" stroke="none" />
    <path d="M1435.73 1154.21C1435.73 1154.21 1456.12 989.583 1424.34 950.568C1392.57 911.552 1374.1 911.075 1374.1 911.075C1374.1 911.075 1338.27 914.384 1308.23 1075.34C1303.75 1099.37 1290.07 1104.67 1289.9 1131.73C1289.68 1168.11 1414.03 1175.49 1435.73 1154.21" id="path410" fill="#FF7F0B" stroke="none" />
    <path d="M838.564 1320.43L714.005 1462.43L714.526 1471.72L721.186 1477.15C721.186 1477.15 843.074 1409.64 888.065 1374.12C892.781 1370.4 895.907 1364.99 896.825 1359C897.877 1352.14 899.21 1343.36 899.606 1340.43C900.289 1335.36 838.564 1320.43 838.564 1320.43" id="path412" fill="#181D28" stroke="none" />
    <path d="M825.997 1346.14C825.997 1346.14 789.562 1144.51 852.225 1111.82L927.102 1159.63C927.102 1159.63 905.082 1297.08 898.791 1346.68" id="path414" fill="#181D28" stroke="none" />
    <path d="M716.954 1457.31L730.634 1471.86L721.186 1477.15C721.186 1477.15 733.311 1499.4 731.709 1515.72L694.702 1480.94L716.954 1457.31" id="path416" fill="#1F1949" stroke="none" />
    <path d="M910.473 1265.96C910.473 1265.96 854.661 1239.52 844.073 1216.54C844.073 1216.54 855.643 1289.32 901.905 1323.76L910.473 1265.96" id="path418" fill="#000000" stroke="none" />
    <path d="M921.402 1145.59C921.402 1145.59 998.326 1260.88 1027.29 1301.35C1056.26 1341.82 1121.87 1486.7 1121.87 1486.7L1106.74 1496.94L973.973 1351.66C973.973 1351.66 811.141 1230.39 834.611 1162.97L921.402 1145.59" id="path420" fill="#181D28" stroke="none" />
    <path d="M1103.39 1496.04L1122.02 1483.02L1129.63 1497.35C1129.63 1497.35 1159.08 1501.62 1168.83 1516.64L1113.6 1516.64L1112.42 1505.3L1103.39 1496.04" id="path422" fill="#1F1949" stroke="none" />
    <path d="M935.095 987.825L998.325 1049.97L987.899 1075.93L935.095 987.825Z" id="path424" fill="#CE5827" stroke="none" />
    <path d="M996.831 1053.69L1046.72 1083.94L1167.03 1100.2L1153.58 1111.79C1137.12 1112.23 1110.04 1112.87 1093.59 1113.18C1080.61 1113.42 1067.64 1113.63 1054.67 1113.73C1046.73 1113.79 1038.8 1114.39 1030.86 1114.12C1023.18 1113.86 1017.11 1111.82 1010.2 1108.57C1000.49 1103.99 990.679 1099.61 980.869 1095.24L978.597 1094.23C978.597 1094.23 983.974 1082.27 988.889 1071.34C993.025 1062.15 996.831 1053.69 996.831 1053.69" id="path426" fill="#DA8C8D" stroke="none" />
    <path d="M987.006 1069.06C987.006 1069.06 1016.22 1104.65 1027.87 1108.38C1039.51 1112.12 1051.59 1113.78 1051.59 1113.78C1051.59 1113.78 1030.72 1117.83 1015.56 1115.85C1000.41 1113.88 975.034 1090.09 975.034 1090.09L987.006 1069.06M1144.73 1112.02C1144.73 1112.02 1151.56 1098.06 1167.03 1100.2C1182.51 1102.35 1167.03 1100.2 1167.03 1100.2L1150.71 1116.21L1144.73 1112.02" id="g428" fill="#C17276" stroke="none" />
    <path d="M799.429 1493.36C749.506 1493.36 711.629 1457.63 687.007 1430C682.903 1425.4 678.823 1420.7 674.503 1415.72C642.803 1379.22 606.874 1337.84 558.007 1331.96C557.11 1331.86 556.47 1331.04 556.578 1330.15C556.686 1329.24 557.502 1328.6 558.399 1328.71C608.519 1334.75 644.887 1376.63 676.977 1413.58C681.289 1418.55 685.362 1423.23 689.453 1427.83C715.058 1456.56 755.226 1494.23 808.13 1489.72C846.529 1486.44 884.911 1463.55 913.435 1426.92C948.554 1381.82 969.29 1327.06 989.342 1274.11C991.971 1267.16 994.594 1260.24 997.239 1253.36C1017.1 1201.71 1066.05 1136.3 1117.67 1116.8C1117.74 1116.77 1139.56 1109.43 1175.87 1098.16C1197.96 1091.3 1225.14 1086.07 1256.6 1080.02C1304.14 1070.87 1363.3 1059.49 1434.6 1037C1447.32 1032.99 1493.3 1014.68 1537.77 996.981C1584.62 978.333 1633.08 959.047 1647.28 954.568C2211.94 776.443 3001.38 527.444 3001.38 527.444L3002.37 530.567C3002.37 530.567 2212.93 779.567 1648.26 957.689C1634.19 962.132 1585.78 981.397 1538.98 1000.02C1492.41 1018.56 1448.42 1036.07 1435.59 1040.12C1364.11 1062.67 1304.84 1074.07 1257.22 1083.23C1225.85 1089.27 1198.76 1094.48 1176.84 1101.29C1140.7 1112.51 1118.94 1119.82 1118.79 1119.88C1068.1 1139.02 1019.9 1203.55 1000.3 1254.54C997.653 1261.42 995.033 1268.32 992.405 1275.27C972.266 1328.44 951.441 1383.44 916.02 1428.94C886.937 1466.28 847.714 1489.63 808.408 1492.98C805.374 1493.24 802.378 1493.36 799.429 1493.36" id="path440" fill="#343766" stroke="none" />
    <path d="M1110.14 1118.41C1110.14 1118.41 1131.36 1109.43 1136 1116.18C1138.58 1119.93 1131.02 1132.34 1110.14 1132.34C1089.26 1132.34 1110.14 1118.41 1110.14 1118.41" id="path442" fill="#DA8C8D" stroke="none" />
    <path d="M952.853 893.881C952.853 893.881 966.037 953.589 935.675 950.179C905.314 946.765 888.834 910.713 900.523 889.137C912.213 867.563 946.679 854.516 952.853 893.881" id="path444" fill="#DA8C8D" stroke="none" />
    <path d="M952.437 904.285C951.579 907.633 950.225 911.011 947.634 913.299C942.933 917.453 935.161 917.205 931.234 922.099C929.197 924.636 928.673 928.026 927.45 931.042C925.427 936.031 921.29 940.123 916.278 942.089C916.802 936.251 916.937 930.379 916.679 924.523C916.366 917.376 915.471 910.228 915.954 903.092C916.437 895.956 918.446 888.655 923.198 883.307C925.537 880.676 928.446 878.617 931.439 876.765C934.478 874.888 937.879 873.081 941.55 873.136C944.55 873.183 947.411 874.947 949.585 876.92C951.021 878.224 951.79 879.831 952.243 881.693C952.985 884.753 953.493 887.951 953.682 891.089C953.949 895.517 953.537 899.988 952.437 904.285" id="g446" fill="#C17276" stroke="none" />
    <path d="M896.87 901.075C896.87 901.075 896.762 938.796 885.69 967.723C885.69 967.723 905.623 984.851 920.503 985.352C935.385 985.853 922.352 920.812 922.352 920.812L896.87 901.075" id="path456" fill="#DA8C8D" stroke="none" />
    <path d="M949.442 1191.95C949.442 1191.95 980.874 1019.9 947.251 982.248C913.629 944.598 894.938 944.834 894.938 944.834C894.938 944.834 827.291 972.297 838.034 1083.01C840.389 1107.29 807.614 1134.35 817.239 1143.72C843.242 1169.02 928.306 1214 949.442 1191.95" id="path458" fill="#FF7F0B" stroke="none" />
    <path d="M838.034 1083.01C838.034 1083.01 846.673 1129.19 859.835 1145.59C872.998 1161.99 829.963 1143.83 829.689 1127.59C829.415 1111.36 830.113 1087.26 830.113 1087.26L838.034 1083.01" id="g460" fill="#CE5827" stroke="none" />
    <path d="M937.186 1112.29C937.186 1112.29 958.253 1149.97 970.019 1154.97C981.786 1159.97 1110.14 1132.34 1110.14 1132.34L1110.14 1118.41C1110.14 1118.41 1008.57 1114.85 996.718 1120.2L983.478 1078.33L937.186 1112.29" id="path470" fill="#DA8C8D" stroke="none" />
    <path d="M991.067 1082.25C990.593 1082.98 955.387 1139.75 944.897 1138.77C934.405 1137.8 934.243 1100.86 934.243 1100.86L981.103 1066.44L991.067 1082.25" id="g472" fill="#C17276" stroke="none" />
    <path d="M898.095 1036.02C905.543 1067.2 919.583 1103.91 931.147 1123.93C931.147 1123.93 964.358 1095.79 989.583 1080.59L953.665 990.951L898.095 1036.02" id="path482" fill="#FF7F0B" stroke="none" />
    <path d="M926.495 948.044L918.73 942.089C918.73 942.089 919.651 954.211 927.313 957.306C927.313 957.306 926.617 949.168 926.495 948.044" id="path484" fill="#C17276" stroke="none" />
    <path d="M956.797 1142.35C956.797 1142.35 943.185 1124.29 939.797 1116.8L931.148 1123.93C931.148 1123.93 911.115 1088.52 905.326 1070.51C905.326 1070.51 906.159 1136.16 953.029 1169.9L956.797 1142.35" id="path486" fill="#CE5827" stroke="none" />
    <path d="M950.439 899.069C946.747 905.336 939.078 905.173 933.811 909.116C927.923 913.521 925.938 920.699 925.287 927.747C922.607 956.78 905.174 977.768 874.606 979.621C855.634 980.771 801.245 969.088 814.297 939.856C822.883 920.626 843.037 910.314 859.138 898.339C877.157 884.936 895.079 869.474 918.119 866.048C935.907 863.404 962.389 878.778 950.439 899.07" id="path488" fill="#343766" stroke="none" />
    <path d="M1174.37 1108.2C1175.6 1104.88 1173.58 1101.24 1170.1 1100.55C1166.51 1099.85 1162.02 1099.32 1158.75 1100.14C1152.38 1101.73 1147.44 1114.19 1147.44 1114.19C1147.44 1114.19 1161.62 1118.96 1167.67 1116.95C1170.86 1115.9 1173.03 1111.82 1174.37 1108.2" id="path490" fill="#DA8C8D" stroke="none" />
    <path d="M1354.72 930.621C1354.72 930.621 1264.45 1044.68 1262.79 1066.28C1261.12 1087.88 1249.49 1106.99 1417.33 1066.28L1417.33 1038.03L1331.75 1043.85C1331.75 1043.85 1397.39 1005.63 1389.08 966.575C1380.77 927.523 1354.72 930.621 1354.72 930.621" id="path492" fill="#FF7F0B" stroke="none" />
    <path d="M1304.15 1088.97C1304.15 1088.97 1372.92 1079.98 1402.27 1069.88C1402.27 1069.88 1346.93 1104.09 1293.36 1111.41C1293.36 1111.41 1300.06 1094.12 1304.15 1088.97" id="path494" fill="#CE5827" stroke="none" />
    <path d="M1417.33 1041.65C1417.33 1041.65 1449.81 1025.52 1451.69 1031.64C1453.56 1037.76 1449.24 1050.17 1440.38 1053.91C1431.53 1057.66 1417.33 1058.34 1417.33 1058.34L1417.33 1041.65" id="path496" fill="#DA8C8D" stroke="none" />
    <path d="M1409.52 1038.56L1331.75 1043.85C1331.75 1043.85 1358.55 1021.41 1377.36 990.951C1377.36 990.951 1358.88 1027.48 1367.84 1029.12C1376.8 1030.75 1409.52 1038.56 1409.52 1038.56" id="path498" fill="#CE5827" stroke="none" />
    <path d="M1661.84 950.923C1661.84 950.923 1651.9 950.075 1648.74 956.531C1645.58 962.988 1659.52 965.573 1659.52 965.573C1659.52 965.573 1668.5 966.855 1671.85 953.604C1671.85 953.604 1672.26 950.088 1661.84 950.923" id="path500" fill="#C17276" stroke="none" />
    <path d="M1654.72 950.061C1655.12 950.105 1662.49 952.577 1662.88 954.488C1663.26 956.399 1649.13 953.437 1649.13 953.437C1649.13 953.437 1652.01 949.767 1654.72 950.061" id="path502" fill="#DA8C8D" stroke="none" />
    <path d="M1409.92 911.327C1409.4 911.104 1399.99 905.683 1392.91 898.908C1392.91 898.908 1398.62 918.232 1409.9 922.113L1409.92 911.327" id="path504" fill="#C17276" stroke="none" />
    <path d="M1437.83 849.383C1426.12 859.106 1411.74 865.584 1396.7 867.922C1394.95 872.098 1392.7 876.2 1390.95 880.376C1390.73 878.787 1389.57 877.488 1388.59 876.215C1388.21 875.724 1387.76 875.255 1387.18 875.035C1386.22 874.668 1385.09 875.094 1384.4 875.855C1383.7 876.614 1383.38 877.643 1383.22 878.66C1382.5 883.179 1384.89 888.024 1388.92 890.2C1387.44 893.599 1385.73 897.023 1384 900.304C1381.63 901.11 1379.18 901.522 1376.67 901.579C1376.16 892.756 1373.83 884.187 1372.14 875.511C1370.46 866.836 1369.52 857.75 1371.92 849.246C1374.32 840.743 1380.68 832.898 1389.29 830.907C1391.39 827.382 1393.57 824.934 1397.21 823.043C1409.98 816.411 1425.29 814.818 1439.16 818.679C1448.57 821.299 1458.24 821.783 1467.95 820.755C1464.78 826.023 1459.36 829.86 1453.3 830.884C1457.36 831.487 1461.49 831.698 1465.55 831.052C1460.77 837.922 1452.68 842.351 1444.32 842.8C1448.36 844.256 1452.97 844.72 1457.22 844.119C1454.86 846.546 1451.74 848.163 1448.45 848.972C1445.16 849.781 1441.18 849.868 1437.83 849.383" id="path506" fill="#343766" stroke="none" />
    <g id="Group" transform="translate(456.37012 1513.6041)" filter="url(#filter_4)">
      <path d="M0 3.26685L4220.95 3.26685" id="Line" fill="none" fill-rule="evenodd" stroke="#000000" stroke-width="-0.13333333" />
      <path d="M0 0L0 3.26672" id="Line" fill="none" fill-rule="evenodd" stroke="#000000" stroke-width="-0.13333333" />
      <path d="M4220.95 0.00012207L0 0.00012207" id="Line" fill="none" fill-rule="evenodd" stroke="#000000" stroke-width="-0.13333333" />
      <path d="M4220.95 3.26672L4220.95 0" id="Line" fill="none" fill-rule="evenodd" stroke="#000000" stroke-width="-0.13333333" />
    </g>
  </g>
</svg>